<svg xmlns="http://www.w3.org/2000/svg" width="95.979" height="27.29" viewBox="0 0 95.979 27.29">
  <g id="brand-bibox-nav.19e06ea_1_" data-name="brand-bibox-nav.19e06ea (1)" transform="translate(0.001 0)">
    <path id="Pfad_30" data-name="Pfad 30" d="M15.011,2.729a2.693,2.693,0,0,1-.1.717l4.964,2.837a2.73,2.73,0,1,1,2.633,4.548V16.46a2.73,2.73,0,1,1-2.633,4.548l-4.964,2.837a2.729,2.729,0,1,1-5.362.716,2.692,2.692,0,0,1,.1-.717L4.686,21.009a2.73,2.73,0,1,1-2.633-4.548V10.832A2.73,2.73,0,1,1,4.686,6.283L9.649,3.445a2.729,2.729,0,1,1,5.362-.716ZM11.6,5.373a2.691,2.691,0,0,1-1.274-.739L5.362,7.471a2.727,2.727,0,0,1-1.95,3.361v5.629a2.691,2.691,0,0,1,1.274.739L9.65,14.363A2.727,2.727,0,0,1,11.6,11Zm1.365,0V11a2.729,2.729,0,0,1,2.047,2.644,2.693,2.693,0,0,1-.1.717L19.879,17.2a2.691,2.691,0,0,1,1.274-.739V10.832a2.729,2.729,0,0,1-2.047-2.644,2.692,2.692,0,0,1,.1-.717L14.237,4.634a2.691,2.691,0,0,1-1.274.739Zm-.682,11a2.73,2.73,0,0,1-1.955-.832L5.362,18.387a2.7,2.7,0,0,1,0,1.433l4.964,2.838a2.733,2.733,0,0,1,3.912,0L19.2,19.818a2.7,2.7,0,0,1,0-1.433l-4.964-2.837a2.73,2.73,0,0,1-1.955.832Z" transform="translate(0 0)" fill="#fff"/>
    <path id="Pfad_31" data-name="Pfad 31" d="M528.019,80.139a.564.564,0,0,0-.017.2v17.49a.6.6,0,0,0,.022.238.2.2,0,0,0,.1.1.621.621,0,0,0,.238.022h8.626a5.573,5.573,0,0,0,3.678-9.756A5.343,5.343,0,0,0,536.3,80h-7.96a.554.554,0,0,0-.2.017A.224.224,0,0,0,528.019,80.139Zm3.621,10.548h5.345a1.933,1.933,0,1,1,0,3.867H531.64Zm4.662-7.05a1.706,1.706,0,1,1,0,3.412H531.64V83.64Z" transform="translate(-497.978 -75.452)" fill="#fff"/>
    <path id="Pfad_32" data-name="Pfad 32" d="M814.16,64.32a2.159,2.159,0,1,0-1.524-.632,2.159,2.159,0,0,0,1.524.632Z" transform="translate(-765.83 -56.587)" fill="#fff"/>
    <path id="Pfad_33" data-name="Pfad 33" d="M816.024,160.22a.619.619,0,0,0-.022.238v12.919a.608.608,0,0,0,.022.238.2.2,0,0,0,.1.1.623.623,0,0,0,.238.022H819.5a.606.606,0,0,0,.238-.022.2.2,0,0,0,.1-.1.613.613,0,0,0,.024-.238V160.458a.6.6,0,0,0-.024-.238.2.2,0,0,0-.1-.1.62.62,0,0,0-.238-.022h-3.139a.605.605,0,0,0-.238.022.2.2,0,0,0-.1.1Z" transform="translate(-769.604 -150.999)" fill="#fff"/>
    <path id="Pfad_34" data-name="Pfad 34" d="M923.9,80.458a.608.608,0,0,1,.022-.238.2.2,0,0,1,.1-.1.622.622,0,0,1,.238-.022h2.91a.607.607,0,0,1,.238.022.2.2,0,0,1,.1.1.634.634,0,0,1,.022.238v4.77a6.88,6.88,0,0,1,3.639-1.041,7.281,7.281,0,0,1,0,14.552,6.853,6.853,0,0,1-3.9-1.217l-1.247.711a.354.354,0,0,1-.062.035.139.139,0,0,1-.046.011h-1.663a.6.6,0,0,1-.238-.022.2.2,0,0,1-.1-.1.615.615,0,0,1-.022-.238V80.46Zm7.164,14.647a3.641,3.641,0,1,0-3.519-3.641,3.587,3.587,0,0,0,3.526,3.641Z" transform="translate(-871.372 -75.547)" fill="#fff"/>
    <path id="Pfad_35" data-name="Pfad 35" d="M1207.278,166.553a7.279,7.279,0,1,0-7.278-7.279A7.278,7.278,0,0,0,1207.278,166.553Zm0-3.639a3.639,3.639,0,1,1,3.639-3.639A3.639,3.639,0,0,1,1207.278,162.914Z" transform="translate(-1131.769 -143.359)" fill="#fff"/>
    <path id="Pfad_36" data-name="Pfad 36" d="M1448,160h4.378l2.445,3.6,2.446-3.6h4.378l-4.634,6.823,4.634,6.823h-4.378l-2.446-3.6-2.445,3.6H1448l4.633-6.823Z" transform="translate(-1365.67 -150.903)" fill="#fff"/>
    <path id="Pfad_37" data-name="Pfad 37" d="M1207.278,166.553a7.279,7.279,0,1,0-7.278-7.279A7.278,7.278,0,0,0,1207.278,166.553Z" transform="translate(-1131.769 -143.359)" fill="#247bff" fill-rule="evenodd"/>
    <path id="Pfad_38" data-name="Pfad 38" d="M1266.954,191.261a.227.227,0,0,0-.277.159l-.3,1.1-1.1-.3a.227.227,0,0,0-.277.159l-.233.881a.227.227,0,0,0,.159.277l.66.176-1.057,3.951-.66-.176a.229.229,0,0,0-.277.159l-.233.881a.229.229,0,0,0,.159.277l1.1.3-.3,1.1a.229.229,0,0,0,.159.277l.438.119a.229.229,0,0,0,.277-.159l.3-1.1.876.233-.3,1.1a.229.229,0,0,0,.159.277l.438.119a.229.229,0,0,0,.277-.159l.3-1.1.3.079a2.079,2.079,0,0,0,2.149-3.309,1.962,1.962,0,0,0-.683-3.361l.3-1.1a.228.228,0,0,0-.159-.277l-.438-.119a.229.229,0,0,0-.277.159l-.3,1.1-.881-.233.3-1.1a.229.229,0,0,0-.159-.277Zm-.711,5.281,2.007.535a.766.766,0,1,1-.4,1.479l-2.007-.535Zm2.285-2.036a.654.654,0,1,1-.341,1.263l-1.62-.432.341-1.263Z" transform="translate(-1191.519 -180.379)" fill="#fff"/>
  </g>
</svg>
