<svg id="bitforex" xmlns="http://www.w3.org/2000/svg" width="169.836" height="27" viewBox="0 0 169.836 27">
  <path id="Pfad_41" data-name="Pfad 41" d="M489.83,68.5H493.2V82.961H489.83Z" transform="translate(-416.931 -58.305)" fill="#2660ad"/>
  <circle id="Ellipse_1" data-name="Ellipse 1" cx="2.232" cy="2.232" r="2.232" transform="translate(72.355 3.56)" fill="#2660ad"/>
  <path id="Pfad_42" data-name="Pfad 42" d="M628.17,14V36.572h3.274v-9.2h10.244v-3.3H631.519V17.076h11.608V14Z" transform="translate(-534.682 -11.916)" fill="#2660ad"/>
  <path id="Pfad_43" data-name="Pfad 43" d="M750.978,52.42h-2.009a5.469,5.469,0,0,0-5.469,5.469v6.139a5.469,5.469,0,0,0,5.469,5.469h2.009a5.469,5.469,0,0,0,5.469-5.469V57.889A5.469,5.469,0,0,0,750.978,52.42ZM753.136,63.4a3.048,3.048,0,0,1-3.048,3.048h-.229a3.048,3.048,0,0,1-3.048-3.048V58.636a3.048,3.048,0,0,1,3.048-3.048h.229a3.048,3.048,0,0,1,3.048,3.048Z" transform="translate(-632.848 -44.619)" fill="#2660ad"/>
  <path id="Pfad_44" data-name="Pfad 44" d="M1040.83,54.33h3.87l3.672,5.581,3.7-5.581h3.7l-5.532,8.236,5.532,8.24h-3.672l-3.8-5.469-3.664,5.469h-3.8l5.588-8.238Z" transform="translate(-885.927 -46.244)" fill="#2660ad"/>
  <path id="Pfad_45" data-name="Pfad 45" d="M860.5,68.749h3.423V57.63a2.586,2.586,0,0,1,2.438-2.53h2.307V51.92h-2.252a5.916,5.916,0,0,0-5.916,5.916Z" transform="translate(-732.435 -44.193)" fill="#2660ad"/>
  <path id="Pfad_46" data-name="Pfad 46" d="M546.63,26.92H549.9v4.018h3.721v2.988h-3.758v8.3a2.176,2.176,0,0,0,2.176,2.183h1.582V47.7h-2.2a4.8,4.8,0,0,1-4.8-4.8Z" transform="translate(-465.277 -22.914)" fill="#2660ad"/>
  <path id="Pfad_47" data-name="Pfad 47" d="M359.94,23.286a6.349,6.349,0,0,0,2.25-4.52,6.871,6.871,0,0,0-2.618-5.1,5.712,5.712,0,0,0-3.329-1.042H346.75V35.39h10.269a6.073,6.073,0,0,0,4.535-1.975,7.347,7.347,0,0,0,1.732-4.911,5.613,5.613,0,0,0-3.346-5.218Zm-9.928-7.373h6.072a2.551,2.551,0,0,1,2.037.969,3.1,3.1,0,0,1,.4.714,3.3,3.3,0,0,1,.094,2.223,2.807,2.807,0,0,1-1.137,1.534,2.47,2.47,0,0,1-1.369.4h-6.1Zm9.766,13.841a3.325,3.325,0,0,1-1.292,1.823,2.7,2.7,0,0,1-1.552.475h-6.922V25.1h6.9a2.852,2.852,0,0,1,2.313,1.152,3.741,3.741,0,0,1,.457.85,4.109,4.109,0,0,1,.1,2.645Z" transform="translate(-295.145 -10.741)" fill="#2660ad"/>
  <path id="Pfad_48" data-name="Pfad 48" d="M38.992,0c-.5,5.407-5.853,4.728-5.853,4.728V0H27.768V4.728h-11.6V0h-5.26V4.713A5.014,5.014,0,0,1,5.283.1H0V.317a9.605,9.605,0,0,0,9.34,9.6l1.525.042v6.734A10.306,10.306,0,0,0,21.17,27h1.674A10.337,10.337,0,0,0,33.151,16.694V9.922h1.588A9.511,9.511,0,0,0,44.25.409V0Zm-11.2,16.116a5.786,5.786,0,1,1-11.571,0V9.811H27.793Z" fill="#2660ad"/>
  <path id="Pfad_49" data-name="Pfad 49" d="M949.022,60.818V56.4a5.9,5.9,0,0,0-5.9-5.9h-.607A6.511,6.511,0,0,0,936,57.011v5.137a5.844,5.844,0,0,0,5.844,5.838h1.421a5.821,5.821,0,0,0,5.285-3.38l-2.629-1.339a4,4,0,0,1-3.5,1.688s-3.393.161-3.045-4.143ZM939.374,56.6a2.816,2.816,0,0,1,2.814-2.816h.93a2.816,2.816,0,0,1,2.816,2.816v1.451h-6.56Z" transform="translate(-796.699 -42.984)" fill="#2660ad"/>
</svg>
