<svg xmlns="http://www.w3.org/2000/svg" width="147.05" height="33.836" viewBox="0 0 147.05 33.836">
  <g id="页面-1" transform="translate(6.99 -7.63)">
    <g id="BitMart_logo" transform="translate(-6.99 7.63)">
      <g id="编组-2">
        <g id="编组">
          <path id="Fill-77" d="M34.04,10.377Q30.705,7.632,24.864,7.63h-9.7V8.986h9.525c3.311,0,6.308.683,8.138,2.263a8.988,8.988,0,0,1,3.218,6.842,8.017,8.017,0,0,1-3.1,6.455c-1.9,1.572-5.3,2.265-8.7,2.265H13.3v1.356H24.316q6.148,0,9.605-2.67a8.941,8.941,0,0,0,3.456-7.513,9.311,9.311,0,0,0-3.337-7.6" transform="translate(-9.273 -7.63)" fill="#fff" fill-rule="evenodd"/>
          <path id="Fill-79" d="M53.265,23.716c-1.384-1.05-2.974-1.9-7.471-1.9H38.311v1.322s3.347-.044,7.316,0c3.836.041,5.242.473,6.532,1.428A5.779,5.779,0,0,1,54.835,29.4a5.647,5.647,0,0,1-2.7,4.693c-1.7,1.25-4.291,1.265-5.346,1.288-.4.01-5.556,0-5.556,0v1.324s2.567.036,4.152,0c3.64-.082,5.8-.3,7.811-1.792a6.647,6.647,0,0,0,2.886-5.588,6.542,6.542,0,0,0-2.816-5.609" transform="translate(-29.319 -19.004)" fill="#fff" fill-rule="evenodd"/>
          <path id="Fill-80" d="M16.287,35.76c-1.038-.653-1.949-1.09-6.247-1.09H4.661v.869h5.23c3.807,0,5.25.677,5.687.945A3.528,3.528,0,0,1,17.561,39.6a3.77,3.77,0,0,1-1.628,3.055,11.243,11.243,0,0,1-5.353.945H-6.99v.869H10.646c3.436,0,4.615-.381,5.825-1.05A4.2,4.2,0,0,0,18.5,39.608a4.376,4.376,0,0,0-2.209-3.849" transform="translate(6.99 -29.303)" fill="#fff" fill-rule="evenodd"/>
        </g>
        <path id="Fill-81" d="M43.76,77.382q-3.335-2.748-9.176-2.747H28.095v1.356H34.4c3.311,0,6.31.683,8.14,2.263A8.987,8.987,0,0,1,45.759,85.1a8.015,8.015,0,0,1-3.1,6.453c-1.9,1.572-5.3,2.265-8.7,2.265H23.02V95.17H34.036q6.148,0,9.6-2.67A8.954,8.954,0,0,0,47.1,84.987a9.307,9.307,0,0,0-3.337-7.6" transform="translate(-17.064 -61.334)" fill="#fff" fill-rule="evenodd"/>
        <path id="Fill-82" d="M52.124,90.716c-1.384-1.048-2.974-1.9-7.471-1.9H34.48v1.322s6.036-.044,10.006,0c3.836.041,5.24.473,6.53,1.428a5.784,5.784,0,0,1,2.678,4.835,5.647,5.647,0,0,1-2.7,4.693c-1.7,1.248-4.291,1.265-5.349,1.288-.4.008-5.556,0-5.556,0v1.321s2.567.036,4.154,0c3.638-.082,5.8-.3,7.811-1.792a6.656,6.656,0,0,0,2.884-5.591,6.544,6.544,0,0,0-2.816-5.609" transform="translate(-26.249 -72.705)" fill="#fff" fill-rule="evenodd"/>
        <path id="Fill-83" d="M45.45,117.988h9.534v-.738H45.45Z" transform="translate(-35.041 -95.492)" fill="#fff" fill-rule="evenodd"/>
        <path id="Fill-84" d="M65.26,131.415h5.546v-.635H65.26Z" transform="translate(-50.919 -106.336)" fill="#fff" fill-rule="evenodd"/>
        <path id="Fill-85" d="M23.02,117.988h2.825v-.738H23.02Z" transform="translate(-17.064 -95.492)" fill="#fff" fill-rule="evenodd"/>
        <path id="Fill-86" d="M14.15,131.258h8.579v-.738H14.15Z" transform="translate(-9.954 -106.128)" fill="#fff" fill-rule="evenodd"/>
        <path id="Fill-87" d="M24.8,36.3h3.342V35.69H24.8Z" transform="translate(-18.49 -30.12)" fill="#fff" fill-rule="evenodd"/>
        <path id="Fill-88" d="M13.07,60.8h7.656V60.09H13.07Z" transform="translate(-9.088 -49.677)" fill="#fff" fill-rule="evenodd"/>
        <path id="Fill-89" d="M14.15,159.785h8.073V158.9H14.15Z" transform="translate(-9.954 -128.874)" fill="#fff" fill-rule="evenodd"/>
        <path id="Fill-90" d="M4.01,172.641H6.029V171.36H4.01Z" transform="translate(-1.827 -138.861)" fill="#fff" fill-rule="evenodd"/>
        <path id="Fill-91" d="M29.43,49.9H42.105V49.19H29.43Z" transform="translate(-22.201 -40.941)" fill="#fff" fill-rule="evenodd"/>
        <path id="Fill-92" d="M61.36,60.8h6.1V60.09h-6.1Z" transform="translate(-47.793 -49.677)" fill="#fff" fill-rule="evenodd"/>
        <path id="Fill-93" d="M26.007,103.582c-1.04-.629-1.951-1.052-6.247-1.052H12.906v.84h6.7c3.807,0,5.252.653,5.689.913a3.409,3.409,0,0,1,1.983,3.007,3.6,3.6,0,0,1-1.63,2.947,11.569,11.569,0,0,1-5.353.913H2.73v.84H20.364c3.438,0,4.617-.367,5.828-1.012a4.021,4.021,0,0,0,2.023-3.68,4.2,4.2,0,0,0-2.207-3.714" transform="translate(-0.801 -83.693)" fill="#fff" fill-rule="evenodd"/>
        <path id="Fill-94" d="M198.4,51.951v7.725h4.22a7.373,7.373,0,0,0,4.244-1.048,3.318,3.318,0,0,0,1.506-2.874q0-3.8-6.4-3.8Zm0-9.2v6.934h3.183a7.052,7.052,0,0,0,4.013-.995,3.205,3.205,0,0,0,1.463-2.809q0-3.129-5.089-3.13Zm-3.108,19.2V40.48h7.55a9.627,9.627,0,0,1,5.457,1.361,4.119,4.119,0,0,1,2.017,3.551,4.578,4.578,0,0,1-1.221,3.176,6.75,6.75,0,0,1-3.367,1.915v.06a7.5,7.5,0,0,1,4.291,1.639,4.53,4.53,0,0,1,1.61,3.6,5.22,5.22,0,0,1-2.441,4.462,10.5,10.5,0,0,1-6.163,1.707Z" transform="translate(-155.14 -33.959)" fill="#fff" fill-rule="evenodd"/>
        <path id="Fill-95" d="M293.4,58.136h3.033V42.8H293.4Zm1.556-19.228a2.175,2.175,0,0,1-1.388-.449,1.385,1.385,0,0,1-.574-1.137,1.408,1.408,0,0,1,.574-1.147,2.157,2.157,0,0,1,1.388-.457,2.232,2.232,0,0,1,1.415.457,1.4,1.4,0,0,1,0,2.269,2.2,2.2,0,0,1-1.415.464Z" transform="translate(-233.449 -30.142)" fill="#fff" fill-rule="evenodd"/>
        <path id="Fill-96" d="M333.234,68.275a7.028,7.028,0,0,1-2.83.478q-4.979,0-4.979-4.492V55.185H322.17V53.09h3.255V49.349l3.035-.794V53.09h4.775v2.094H328.46v8.642a3.075,3.075,0,0,0,.647,2.2,2.925,2.925,0,0,0,2.148.659,3.7,3.7,0,0,0,1.979-.51v2.1" transform="translate(-256.835 -40.431)" fill="#fff" fill-rule="evenodd"/>
        <path id="Fill-97" d="M416.214,68.894h-2.843V55.643a37.868,37.868,0,0,1,.238-3.845h-.067a10.768,10.768,0,0,1-.733,1.915l-8.341,15.182h-1.4l-8.321-15.073a10.209,10.209,0,0,1-.733-2.025h-.067a38.042,38.042,0,0,1,.137,3.871V68.894h-2.759V49.14h3.779L402.6,62.915a15.65,15.65,0,0,1,1.124,2.37h.1q.733-1.626,1.175-2.425l7.642-13.72h3.573V68.893" transform="translate(-312.268 -40.901)" fill="#fff" fill-rule="evenodd"/>
        <path id="Fill-98" d="M546.2,77.531l-4.571.51a8.628,8.628,0,0,0-3.183.846,2.256,2.256,0,0,0-1.072,2.148,2.168,2.168,0,0,0,.99,1.837,4.421,4.421,0,0,0,2.636.711,5.472,5.472,0,0,0,3.728-1.28A4.11,4.11,0,0,0,546.2,79.06Zm3.035,7.757H546.2v-2.4h-.073a6.723,6.723,0,0,1-5.828,2.755,7.19,7.19,0,0,1-4.432-1.213,3.843,3.843,0,0,1-1.6-3.22q0-4.3,6.254-5l5.679-.643q0-3.909-3.9-3.908a10.7,10.7,0,0,0-6.179,1.886V71.033a13.874,13.874,0,0,1,6.438-1.437q6.678,0,6.679,5.721Z" transform="translate(-426.834 -57.296)" fill="#fff" fill-rule="evenodd"/>
        <path id="Fill-99" d="M640.721,72.8a4.379,4.379,0,0,0-2.294-.494,4.151,4.151,0,0,0-3.247,1.483,5.9,5.9,0,0,0-1.306,4.043v7.817H630.84V70.314h3.035v3.16h.073a5.387,5.387,0,0,1,1.981-2.525,5.175,5.175,0,0,1,2.979-.905,6,6,0,0,1,1.814.211V72.8" transform="translate(-504.237 -57.654)" fill="#fff" fill-rule="evenodd"/>
        <path id="Fill-100" d="M689.174,68.275a7.028,7.028,0,0,1-2.83.478q-4.979,0-4.979-4.492V55.185H678.11V53.09h3.255V49.349l3.035-.794V53.09h4.775v2.094H684.4v8.642a3.075,3.075,0,0,0,.647,2.2,2.925,2.925,0,0,0,2.148.659,3.7,3.7,0,0,0,1.979-.51v2.1" transform="translate(-542.125 -40.431)" fill="#fff" fill-rule="evenodd"/>
      </g>
    </g>
  </g>
</svg>
