<svg xmlns="http://www.w3.org/2000/svg" width="147.529" height="27" viewBox="0 0 147.529 27">
  <g id="图层_2" data-name="图层 2" transform="translate(0 0.003)">
    <g id="图层_1" data-name="图层 1" transform="translate(0 -0.003)">
      <path id="Pfad_50" data-name="Pfad 50" d="M54.856,32.048a21.5,21.5,0,0,1-.379,3.717Q52.011,48.583,39.755,48.583H34.59v-.062l1.265-5.9h3.568q6.638,0,8.037-7.546c.067-.323.121-.648.163-.976l7.1-4.1a14.781,14.781,0,0,1,.135,2.048Z" transform="translate(-24.886 -21.583)" fill="#6e45b7"/>
      <path id="Pfad_51" data-name="Pfad 51" d="M45.61,3.05,39.245,6.731a6.423,6.423,0,0,0-3.613-.895H25.35l.031-.146L26.6,0h10.66a14.852,14.852,0,0,1,4.031.511,9.477,9.477,0,0,1,4.04,2.244C45.425,2.859,45.518,2.952,45.61,3.05Z" transform="translate(-18.238 0.003)" fill="#6e45b7"/>
      <path id="Pfad_52" data-name="Pfad 52" d="M17.225,38.88l-.943,5.888h-4.41L9.718,54.91l-.014.062H0l3.644-4.915L6.034,38.88Z" transform="translate(0 -27.972)" fill="#00dcd2"/>
      <path id="Pfad_53" data-name="Pfad 53" d="M134.831,23.88a6.331,6.331,0,0,1,6.4,7.748,9.331,9.331,0,0,1-2.727,5.016c-.16.154-.342.309-.525.466a9.1,9.1,0,0,1-5.874,2.286H124.35l2.738-15.536Zm-7.243,12.764h4.994a6.23,6.23,0,0,0,5.874-4.994,4.082,4.082,0,0,0-4.1-5h-4.994Z" transform="translate(-89.465 -17.165)" fill="#6e45b7"/>
      <path id="Pfad_54" data-name="Pfad 54" d="M183.68,39.4l2.741-15.536H189.2L186.455,39.4Z" transform="translate(-132.151 -17.165)" fill="#6e45b7"/>
      <path id="Pfad_55" data-name="Pfad 55" d="M204.876,31.628a4.08,4.08,0,0,0,4.113,4.994h5l.525-2.974h-5L210,30.873h7.768l-1.5,8.523H208.5a6.346,6.346,0,0,1-6.4-7.768,9.683,9.683,0,0,1,9.143-7.768h7.768l-.491,2.775H210.75A6.219,6.219,0,0,0,204.876,31.628Z" transform="translate(-145.317 -17.165)" fill="#6e45b7"/>
      <path id="Pfad_56" data-name="Pfad 56" d="M256.87,39.4l2.738-15.536h2.775L259.645,39.4Z" transform="translate(-184.808 -17.165)" fill="#6e45b7"/>
      <path id="Pfad_57" data-name="Pfad 57" d="M289.067,23.86l-.491,2.775H277.234a1.781,1.781,0,0,0-1.669,1.42l-.255,1.456H285.3l-.488,2.775H274.8l-1.257,7.126H270.79l2-11.342A5.223,5.223,0,0,1,277.7,23.86Z" transform="translate(-194.823 -17.165)" fill="#00dcd2"/>
      <path id="Pfad_58" data-name="Pfad 58" d="M330.05,39.4l2.738-15.536h2.775L332.825,39.4Z" transform="translate(-237.458 -17.165)" fill="#00dcd2"/>
      <path id="Pfad_59" data-name="Pfad 59" d="M362.185,23.844l-2.738,15.539-2.4-2.132-8.61-7.7L346.7,39.369H343.93l2.732-15.494,2.4,2.132,8.629,7.7,1.745-9.9Z" transform="translate(-247.445 -17.129)" fill="#00dcd2"/>
      <path id="Pfad_60" data-name="Pfad 60" d="M409.787,28.025l-.255,1.456h9.987l-.488,2.775h-9.987l-.519,2.929a1.17,1.17,0,0,0,1.173,1.422h11.339l-.488,2.775H409.206a3.423,3.423,0,0,1-3.434-4.208l1.262-7.145a5.224,5.224,0,0,1,4.912-4.208h11.342l-.491,2.775H411.456A1.776,1.776,0,0,0,409.787,28.025Z" transform="translate(-291.891 -17.137)" fill="#00dcd2"/>
      <path id="Pfad_61" data-name="Pfad 61" d="M460.556,39.469h.045l-.051.042ZM478.878,23.93l-7.389,7.791,4.618,7.748H472.6l-3.263-5.485-5.207,5.485h-3.507l7.347-7.748-4.651-7.791h3.507l3.288,5.527,5.235-5.527Zm-2.805,15.581v-.042h.034Z" transform="translate(-331.348 -17.216)" fill="#00dcd2"/>
    </g>
  </g>
</svg>
