<svg xmlns="http://www.w3.org/2000/svg" width="95.802" height="33.836" viewBox="0 0 95.802 33.836">
  <g id="_1628145333378881743_gateio_h_4" data-name="1628145333378881743_gateio_h_4" transform="translate(-362.299 -128.998)">
    <path id="Pfad_9132" data-name="Pfad 9132" d="M430.085,151.092a2.069,2.069,0,0,0-2.059,2.04,2.156,2.156,0,0,0,1.283,1.969,2.122,2.122,0,0,0,2.245-.49,2,2,0,0,0,.606-1.47,1.95,1.95,0,0,0-.606-1.452,2.031,2.031,0,0,0-1.47-.6Zm-33.139-15.679h-1.532a1.2,1.2,0,0,0-1.2,1.2v.855a7.525,7.525,0,0,0-5.559-2.548,7.684,7.684,0,0,0-5.969,2.662,9.551,9.551,0,0,0-2.388,6.646,9.937,9.937,0,0,0,2.378,6.78,7.863,7.863,0,0,0,11.527.293V153a1.5,1.5,0,0,0,1.488,1.5h2.627v-17.7a1.369,1.369,0,0,0-1.37-1.381Zm-3.884,13.024a4.716,4.716,0,0,1-3.679,1.568,4.483,4.483,0,0,1-3.537-1.621,6.2,6.2,0,0,1-1.372-4.152,5.918,5.918,0,0,1,1.407-4.009,4.533,4.533,0,0,1,3.537-1.6,4.624,4.624,0,0,1,3.644,1.586,6.721,6.721,0,0,1,0,8.231Zm-12.767-10.032v-1.755a1.236,1.236,0,0,0-1.238-1.238h-1.621a1.236,1.236,0,0,0-1.238,1.238v.766a7.15,7.15,0,0,0-5.577-2.5,7.537,7.537,0,0,0-6.156,2.878,10.236,10.236,0,0,0-2.165,6.592,9.689,9.689,0,0,0,2.334,6.646,7.532,7.532,0,0,0,5.942,2.619,7.675,7.675,0,0,0,5.63-2.494v2.477q0,5.519-4.5,5.523a4.393,4.393,0,0,1-3.715-1.657,3.637,3.637,0,0,1-.543-1.051,1.448,1.448,0,0,0-1.372-.971h-1.55a1.209,1.209,0,0,0-1.167,1.505,7.464,7.464,0,0,0,2.468,3.937,8.859,8.859,0,0,0,5.844,1.917,8.29,8.29,0,0,0,6.61-2.769,7.59,7.59,0,0,0,1.71-3.448,14.811,14.811,0,0,0,.232-1.684c.054-.633.08-1.372.08-2.209V150.15a10.133,10.133,0,0,1-1.728-5.933,9.75,9.75,0,0,1,1.719-5.808Zm-5.194,9.888a4.5,4.5,0,0,1-3.715,1.71,4.4,4.4,0,0,1-3.679-1.693,6.235,6.235,0,0,1-1.22-3.973,6.3,6.3,0,0,1,1.22-4.009,4.429,4.429,0,0,1,3.679-1.728,4.565,4.565,0,0,1,3.59,1.586,5.96,5.96,0,0,1,1.39,4.133,6.16,6.16,0,0,1-1.265,3.973Zm39.269-12.864v-.018h-8.5v-5.2A1.213,1.213,0,0,0,404.66,129H403a1.232,1.232,0,0,0-1.229,1.229v5.185h-1.746v3.822h1.747v15.243h2.334a1.766,1.766,0,0,0,1.764-1.755V139.244h4.2a8.8,8.8,0,0,1,1.212-1.755,7.413,7.413,0,0,1,3.082-2.059ZM435.279,129a2.524,2.524,0,0,0-1.871.784,2.567,2.567,0,0,0-.784,1.862,2.676,2.676,0,0,0,2.682,2.7,2.5,2.5,0,0,0,1.871-.784,2.568,2.568,0,0,0,.784-1.9,2.5,2.5,0,0,0-.784-1.871A2.543,2.543,0,0,0,435.279,129Zm.837,8.428h-1.488a1.376,1.376,0,0,0-1.381,1.381v13.017a1.94,1.94,0,0,1,.461,1.3,1.963,1.963,0,0,1-.461,1.31v.731h2.637a1.462,1.462,0,0,0,1.461-1.461V138.647a1.224,1.224,0,0,0-1.229-1.22Zm19.26,2.512a9.706,9.706,0,0,0-13.452-.018,8.81,8.81,0,0,0-2.753,6.539,9.209,9.209,0,0,0,2.7,6.78,9.036,9.036,0,0,0,6.682,2.733,9.389,9.389,0,0,0,6.8-2.682,9.507,9.507,0,0,0,.027-13.354Zm-2.9,10.824a5.53,5.53,0,0,1-7.688-.027,6.009,6.009,0,0,1-1.425-4.2,5.709,5.709,0,0,1,1.461-4.044,4.957,4.957,0,0,1,3.8-1.568,5.009,5.009,0,0,1,3.839,1.568,5.824,5.824,0,0,1,1.443,4.133,5.888,5.888,0,0,1-1.434,4.143Z" fill="#de5959"/>
    <path id="Pfad_9133" data-name="Pfad 9133" d="M905.6,224.1a5.319,5.319,0,0,1-1.425-3.474h11.75a.987.987,0,0,0,.989-.962,9.848,9.848,0,0,0-2.254-6.869,8.9,8.9,0,0,0-12.428.071,9.8,9.8,0,0,0-2.334,6.816A9.563,9.563,0,0,0,902.3,226.5a7.813,7.813,0,0,0,4.116,2.316,8.743,8.743,0,0,0,2.1.231c2.922.062,5.461.125,8.374.177V228.8a2,2,0,0,1-.535-1.4,1.952,1.952,0,0,1,.552-1.381V225.5c-2.307-.054-7.884-.116-8.107-.116A4.3,4.3,0,0,1,905.6,224.1Zm-.57-8.2a4.226,4.226,0,0,1,.918-1.024,4.011,4.011,0,0,1,1.194-.659,4.279,4.279,0,0,1,1.408-.231,3.928,3.928,0,0,1,4.133,3.278h-8.231a4.954,4.954,0,0,1,.579-1.363Z" transform="translate(-489.707 -74.058)" fill="#de5959"/>
  </g>
</svg>
