<svg id="la_logo_blue_400.f3429597" xmlns="http://www.w3.org/2000/svg" width="114.12" height="27.29" viewBox="0 0 114.12 27.29">
  <path id="Pfad_31" data-name="Pfad 31" d="M8.326,16.4l4.208-9.736H9.275L3.957,18.949h9.79l.877-2.509h3.241l.2,2.509H21.5L19.639,6.668H15.7L11.455,16.4Zm7.1-2.3H17.7l-.412-5.319Z" transform="translate(0.091 0.154)" fill="#fff" fill-rule="evenodd"/>
  <path id="Pfad_32" data-name="Pfad 32" d="M13.495,27.29A13.57,13.57,0,0,0,26.99,13.645,13.57,13.57,0,0,0,13.495,0,13.57,13.57,0,0,0,0,13.645,13.57,13.57,0,0,0,13.495,27.29ZM8.418,16.558l4.208-9.736H9.367L4.049,19.1h9.79l.877-2.509h3.241l.2,2.509h3.438L19.73,6.822H15.791l-4.245,9.736Z" fill="#5661ff" fill-rule="evenodd"/>
  <path id="Pfad_33" data-name="Pfad 33" d="M17.446,14.059H15.172l1.862-5.319Z" transform="translate(0.35 0.202)" fill="#5661ff"/>
  <path id="Pfad_34" data-name="Pfad 34" d="M39.114,17.341H43.8v2.344H36.179V7.034h2.935Z" transform="translate(0.835 0.162)" fill="#5661ff"/>
  <path id="Pfad_35" data-name="Pfad 35" d="M57.274,19.685H55a1.092,1.092,0,0,1-.634-.174.953.953,0,0,1-.339-.46l-.747-2.206h-4.81l-.747,2.206a1,1,0,0,1-.339.443.99.99,0,0,1-.617.191H44.475l4.9-12.651h3Zm-8.127-4.836H52.6l-1.164-3.465q-.113-.33-.269-.773t-.3-.972q-.139.53-.287.981t-.278.782Z" transform="translate(1.027 0.162)" fill="#5661ff"/>
  <path id="Pfad_36" data-name="Pfad 36" d="M65.344,7.034V9.361h-3.56V19.685H58.849V9.361h-3.56V7.034Z" transform="translate(1.276 0.162)" fill="#5661ff"/>
  <path id="Pfad_37" data-name="Pfad 37" d="M78.286,13.359a6.744,6.744,0,0,1-.478,2.553,5.966,5.966,0,0,1-3.4,3.421,7.543,7.543,0,0,1-5.375,0,6,6,0,0,1-3.421-3.421,7.184,7.184,0,0,1,0-5.106,6.159,6.159,0,0,1,1.337-2.049A6.23,6.23,0,0,1,69.03,7.393,7.075,7.075,0,0,1,71.721,6.9a6.9,6.9,0,0,1,2.683.5A6.136,6.136,0,0,1,76.48,8.765a6.051,6.051,0,0,1,1.328,2.049A6.722,6.722,0,0,1,78.286,13.359Zm-3,0a5.429,5.429,0,0,0-.243-1.685,3.535,3.535,0,0,0-.7-1.276,2.976,2.976,0,0,0-1.111-.8,3.84,3.84,0,0,0-1.5-.278A3.928,3.928,0,0,0,70.2,9.6a3.054,3.054,0,0,0-1.12.8,3.609,3.609,0,0,0-.695,1.276,5.426,5.426,0,0,0-.243,1.685,5.541,5.541,0,0,0,.243,1.7,3.62,3.62,0,0,0,.695,1.268,3.055,3.055,0,0,0,1.12.8,4.04,4.04,0,0,0,1.519.269,3.949,3.949,0,0,0,1.5-.269,2.977,2.977,0,0,0,1.111-.8,3.545,3.545,0,0,0,.7-1.268A5.544,5.544,0,0,0,75.282,13.359Z" transform="translate(1.503 0.159)" fill="#5661ff"/>
  <path id="Pfad_38" data-name="Pfad 38" d="M82.3,12.157h.469a1.065,1.065,0,0,0,.938-.408L86.55,7.616a1.228,1.228,0,0,1,.53-.46,1.99,1.99,0,0,1,.738-.122h2.553L86.62,12.149a2.513,2.513,0,0,1-.417.46,2.625,2.625,0,0,1-.443.3,2.213,2.213,0,0,1,1.1.9l3.821,5.87H88.061a2.356,2.356,0,0,1-.434-.035,1.1,1.1,0,0,1-.3-.1.946.946,0,0,1-.226-.165,1.928,1.928,0,0,1-.182-.234l-2.865-4.4a.834.834,0,0,0-.4-.339,1.616,1.616,0,0,0-.643-.1H82.3v5.383H79.361V7.034H82.3Z" transform="translate(1.832 0.162)" fill="#5661ff"/>
  <path id="Pfad_39" data-name="Pfad 39" d="M99.623,7.034V9.292H94.43v2.952h3.977v2.171H94.43v3.013h5.193v2.258H91.478V7.034Z" transform="translate(2.111 0.162)" fill="#5661ff"/>
  <path id="Pfad_40" data-name="Pfad 40" d="M102.295,7.034a2.474,2.474,0,0,1,.321.017.744.744,0,0,1,.235.069.7.7,0,0,1,.2.13,2.287,2.287,0,0,1,.217.234l6.009,7.6q-.035-.365-.052-.7t-.017-.651V7.034h2.587V19.685h-1.527a1.412,1.412,0,0,1-.574-.1,1.236,1.236,0,0,1-.451-.382l-5.966-7.537c.017.22.033.437.044.651s.017.405.017.59v6.781H100.75V7.034Z" transform="translate(2.325 0.162)" fill="#5661ff"/>
</svg>
