<svg id="lbank-logo" xmlns="http://www.w3.org/2000/svg" width="142.268" height="27.579" viewBox="0 0 142.268 27.579">
  <g id="XMLID_245_" transform="translate(0 0)">
    <path id="XMLID_280_" d="M13.79,0a13.79,13.79,0,1,0,13.79,13.79A13.79,13.79,0,0,0,13.79,0Zm1.254,16.046a1.793,1.793,0,0,1,.627,1.379,1.928,1.928,0,0,1-1.88,1.88,2.013,2.013,0,0,1-1.379-.627,3.668,3.668,0,0,0-4.763,0l-.126.126a2.228,2.228,0,0,1-1.254.5,1.61,1.61,0,0,1-1.254-.5l-.251-.251v-.126L4.638,18.3c0-.126-.126-.251-.126-.376s-.126-.376-.126-.5h0c0-.251,0-.376.126-.5,0-.126.126-.251.126-.376a.123.123,0,0,1,.126-.126V16.3c.251,0,.251,0,.251-.126l.126-.126h0a3.6,3.6,0,0,0,.878-2.256,3.021,3.021,0,0,0-.878-2.256,2.69,2.69,0,0,1-.5-1.508A1.928,1.928,0,0,1,6.521,8.151a1.822,1.822,0,0,1,1.753,1.875,2.013,2.013,0,0,1-.627,1.386,3.958,3.958,0,0,0-.878,2.382,3.958,3.958,0,0,0,.878,2.378l.126.126h0a3.6,3.6,0,0,0,2.253.877,3.021,3.021,0,0,0,2.256-.878c0-.126.126-.126.251-.251h0a3.6,3.6,0,0,0,.878-2.256,3.021,3.021,0,0,0-.878-2.256,2.076,2.076,0,0,1-.627-1.5,1.88,1.88,0,1,1,3.761,0,2.013,2.013,0,0,1-.624,1.383,3.679,3.679,0,0,0-.878,2.382,3.021,3.021,0,0,0,.878,2.253Zm2.382-.5a1.88,1.88,0,1,1,1.88-1.88,1.846,1.846,0,0,1-1.88,1.88Zm4.891.5h0c.126.251.251.251.251.251v.126l.126.126c0,.126.126.251.126.376s.126.376.126.5h0c0,.251,0,.376-.126.5,0,.126-.126.251-.126.376a.123.123,0,0,1-.126.126v.126l-.251.251a2.228,2.228,0,0,1-1.254.5,1.61,1.61,0,0,1-1.255-.5l-.251-.251v-.126L19.43,18.3c0-.126-.126-.251-.126-.376s-.126-.376-.126-.5h0c0-.251,0-.376.126-.5,0-.126.126-.251.126-.376a.123.123,0,0,1,.126-.126V16.3l.126-.126.126-.126a3.6,3.6,0,0,0,.878-2.256,3.021,3.021,0,0,0-.878-2.257,2.013,2.013,0,0,1-.627-1.379,1.88,1.88,0,0,1,3.761,0,2.013,2.013,0,0,1-.627,1.379,3.679,3.679,0,0,0-.877,2.383,3.556,3.556,0,0,0,.877,2.131Z" transform="translate(0 0)" fill="#f8e19a"/>
    <path id="XMLID_278_" d="M31.5,23.385V2.7h5.265V19.246h9.277v4.137Z" transform="translate(4.338 0.685)" fill="#fafafa"/>
    <path id="XMLID_277_" d="M120.305,23.385,110.026,13.1,120.305,2.826h-7.522l-6.521,6.521V2.7H101V23.385h5.265V16.864l6.521,6.521Z" transform="translate(21.963 0.685)" fill="#fafafa"/>
    <path id="XMLID_272_" d="M69.869,19.373l-1.254,4.012H63.1L70.246,2.7h7.02l7.146,20.685H78.9l-1.254-4.012-1.256-3.886-2.63-8.65L71,15.486Z" transform="translate(12.351 0.685)" fill="#fafafa"/>
    <path id="XMLID_270_" d="M87.914,9.846V23.385H82.9V2.7h6.521l7.773,14.165V2.7h5.014V23.385H95.687Z" transform="translate(17.372 0.685)" fill="#fafafa"/>
    <path id="XMLID_247_" d="M63.6,15.361a7.108,7.108,0,0,0-1-1.63,4.507,4.507,0,0,0-1.5-1.006,8.108,8.108,0,0,0-1.63-.5,7.067,7.067,0,0,0,1.5-.5,4.5,4.5,0,0,0,1.254-.872,2.476,2.476,0,0,0,.752-1.379,3.984,3.984,0,0,0,.251-1.755,9.677,9.677,0,0,0-.251-1.88,3.5,3.5,0,0,0-1.128-1.63,4.438,4.438,0,0,0-2.006-1.128A11.287,11.287,0,0,0,56.706,2.7H45.8V23.384H57.456a6.787,6.787,0,0,0,4.763-1.5,5.21,5.21,0,0,0,1.63-4.137,5.008,5.008,0,0,0-.249-2.382ZM51.19,6.085h5.516a3.709,3.709,0,0,1,1.254.251,2.021,2.021,0,0,1,.878.5,2.622,2.622,0,0,1,.5.752,1.859,1.859,0,0,1,.126.878,2.383,2.383,0,0,1-.627,1.63c-.376.5-1.128.627-2.131.627H51.19ZM59.464,19c-.376.5-1.128.627-2.131.627H51.19V14.984h6.143a3.709,3.709,0,0,1,1.254.251,2.021,2.021,0,0,1,.878.5,2.622,2.622,0,0,1,.5.752,1.858,1.858,0,0,1,.126.878A1.925,1.925,0,0,1,59.464,19Z" transform="translate(7.964 0.686)" fill="#fafafa"/>
  </g>
</svg>
