<svg xmlns="http://www.w3.org/2000/svg" xmlns:xlink="http://www.w3.org/1999/xlink" width="168" height="21" viewBox="0 0 168 21">
  <defs>
    <clipPath id="clip-path">
      <rect id="Rechteck_14" data-name="Rechteck 14" width="168" height="21" fill="#fff"/>
    </clipPath>
  </defs>
  <g id="mexc" clip-path="url(#clip-path)">
    <path id="Pfad_14" data-name="Pfad 14" d="M32.668,14.379,25.488,1.925a4,4,0,0,0-6.931.11L11.018,14.986a3.564,3.564,0,0,0,3.148,5.357h15.1A3.965,3.965,0,0,0,32.668,14.379Z" fill="#00b897"/>
    <path id="Pfad_15" data-name="Pfad 15" d="M22.312,15.345l-.442-.773c-.414-.718-1.326-2.264-1.326-2.264L14.47,1.759a3.979,3.979,0,0,0-6.876.414L.525,14.406a3.964,3.964,0,0,0,3.452,5.937H29.216C25.322,20.371,24.08,18.355,22.312,15.345Z" fill="#76fcb2"/>
    <path id="Pfad_16" data-name="Pfad 16" d="M22.312,15.345l-.442-.773c-.414-.718-1.326-2.264-1.326-2.264L16.624,5.4l-5.633,9.61a3.564,3.564,0,0,0,3.148,5.357H29.216C25.295,20.343,24.08,18.355,22.312,15.345Z" fill="#fff"/>
    <path id="Pfad_17" data-name="Pfad 17" d="M165.813,19.377a4.449,4.449,0,0,1-2.43-.608,2.063,2.063,0,0,1-.967-1.85V4.879h1.6A1.078,1.078,0,0,1,165.1,5.956v10.6a1.4,1.4,0,0,0,.414.939,1.287,1.287,0,0,0,.966.387h.3a.237.237,0,0,1,.221.221v1.3Z" fill="#00b897"/>
    <path id="Pfad_18" data-name="Pfad 18" d="M131.295,19.376a5.962,5.962,0,0,1-4.032-1.326,3.763,3.763,0,0,1-1.1-1.491,6.816,6.816,0,0,1-.332-2.43,6.921,6.921,0,0,1,.332-2.43,3.455,3.455,0,0,1,1.077-1.436,6.794,6.794,0,0,1,8.063,0,3.637,3.637,0,0,1,1.077,1.436,7.031,7.031,0,0,1,.331,2.43,6.82,6.82,0,0,1-.331,2.43,3.757,3.757,0,0,1-1.105,1.491A5.715,5.715,0,0,1,131.295,19.376Zm0-8.919c-1.823,0-2.734,1.243-2.734,3.7q0,3.728,2.734,3.728c1.822,0,2.734-1.243,2.734-3.7C134.029,11.7,133.09,10.457,131.295,10.457Z" fill="#00b897"/>
    <path id="Pfad_19" data-name="Pfad 19" d="M142.727,19.377a6.99,6.99,0,0,1-3.893-1.132,3.714,3.714,0,0,0-.608-.414.233.233,0,0,1-.11-.193V4.879h1.629a1.1,1.1,0,0,1,1.077,1.077V9.684l.5-.276a5.079,5.079,0,0,1,2.347-.442,4.958,4.958,0,0,1,3.949,1.546,5.42,5.42,0,0,1,1.16,3.618,4.878,4.878,0,0,1-1.326,3.59A6.178,6.178,0,0,1,142.727,19.377ZM143,10.457a4.074,4.074,0,0,0-2.071.69l-.11.055V17.2l.11.083a3.844,3.844,0,0,0,2.071.58,2.558,2.558,0,0,0,2.292-1.243,4.458,4.458,0,0,0,.691-2.485C145.986,11.7,144.964,10.457,143,10.457Z" fill="#00b897"/>
    <path id="Pfad_20" data-name="Pfad 20" d="M155.154,19.349c-3.038,0-4.943-1.988-4.943-5.219,0-3.2,1.877-5.191,4.887-5.191a4.931,4.931,0,0,1,2.955.884l.166.11v-.8h2.126a.218.218,0,0,1,.221.221v9.8h-2.375v-.884l-.166.138A4.273,4.273,0,0,1,155.154,19.349Zm.552-8.643c-1.906,0-3.038,1.464-3.038,3.424s1.132,3.479,3.038,3.479a3.356,3.356,0,0,0,2.485-.884l.028-.028V11.672l-.028-.028A3.132,3.132,0,0,0,155.706,10.705Z" fill="#00b897"/>
    <path id="Pfad_21" data-name="Pfad 21" d="M57.04,19.238V4.851H69v.911a1.3,1.3,0,0,1-1.3,1.3H60.023v3.866H67.7v2.209H60.023V17H67.7A1.3,1.3,0,0,1,69,18.3v.911Z" fill="#fff"/>
    <path id="Pfad_22" data-name="Pfad 22" d="M86.173,4.851H83.357a1.661,1.661,0,0,0-1.326.635l-3.4,4.28-3.4-4.253a1.661,1.661,0,0,0-1.325-.635H71.1l5.716,7.18L71.1,19.238h2.817a1.661,1.661,0,0,0,1.325-.635l3.4-4.253,3.424,4.28a1.747,1.747,0,0,0,1.326.635H86.2l-5.716-7.18Z" fill="#fff"/>
    <path id="Pfad_23" data-name="Pfad 23" d="M47.679,17.721,51.6,10.872v8.34h2.982V4.825h-1.85a1.581,1.581,0,0,0-1.408.828l-4.694,8.56-4.694-8.56a1.582,1.582,0,0,0-1.408-.828h-1.85V19.212h2.982v-8.34l3.921,6.848Z" fill="#fff"/>
    <path id="Pfad_24" data-name="Pfad 24" d="M93.961,19.4a7.385,7.385,0,0,1-7.539-7.345,7.477,7.477,0,0,1,1.988-5.44,7.556,7.556,0,0,1,5.412-1.961,7.69,7.69,0,0,1,6.186,2.679l-.939.8A1.66,1.66,0,0,1,97,8.193a4.936,4.936,0,0,0-3.065-.939c-2.927,0-4.667,1.767-4.667,4.75,0,3.01,1.795,4.86,4.667,4.86A5.056,5.056,0,0,0,97,15.925a1.662,1.662,0,0,1,2.071.055l.939.8A7.527,7.527,0,0,1,93.961,19.4Z" fill="#fff"/>
    <path id="Pfad_25" data-name="Pfad 25" d="M112.324,19.4c-4.639,0-7.511-2.817-7.511-7.345s2.872-7.345,7.456-7.345a7.905,7.905,0,0,1,5.5,1.933l-.69.773a1.634,1.634,0,0,1-1.188.525,1.613,1.613,0,0,1-.718-.166,6.308,6.308,0,0,0-2.9-.663c-2.983,0-4.833,1.905-4.833,4.971a4.649,4.649,0,0,0,5.026,5,5.945,5.945,0,0,0,3.507-.884l.055-.028V13.219h-3.286v-.967a1.3,1.3,0,0,1,1.3-1.3H118.1a.237.237,0,0,1,.221.221v6.379A8.937,8.937,0,0,1,112.324,19.4Z" fill="#00b897"/>
    <path id="Pfad_26" data-name="Pfad 26" d="M123.646,19.377a4.449,4.449,0,0,1-2.43-.608,2.066,2.066,0,0,1-.967-1.85V4.879h1.6a1.078,1.078,0,0,1,1.077,1.077v10.6a1.4,1.4,0,0,0,.414.939,1.288,1.288,0,0,0,.966.387h.3a.237.237,0,0,1,.221.221v1.3Z" fill="#00b897"/>
  </g>
</svg>
