<svg xmlns="http://www.w3.org/2000/svg" width="219.311" height="33.836" viewBox="0 0 219.311 33.836">
  <g id="pcs-white" transform="translate(0 0.004)">
    <path id="Pfad_5660" data-name="Pfad 5660" d="M32.3,55.776a2.123,2.123,0,0,1-1.1-.274,1.98,1.98,0,0,1-.274-.959V39.2a1.6,1.6,0,0,1,.274-.959,1.349,1.349,0,0,1,1.1-.411h6.438a8.714,8.714,0,0,1,5.479,1.507A6.291,6.291,0,0,1,46,44a5.8,5.8,0,0,1-1.781,4.657c-1.1.959-3.014,1.507-5.479,1.507H36.273v4.246a1.6,1.6,0,0,1-.274.959c-.274.274-.548.274-1.1.274H32.3Zm6.027-9.452a2.184,2.184,0,0,0,1.644-.548,2.324,2.324,0,0,0,.548-1.781,2.323,2.323,0,0,0-.548-1.781,2.184,2.184,0,0,0-1.644-.548H36.273v4.658Z" transform="translate(10.165 -29.477)" fill="#fff"/>
    <path id="Pfad_5661" data-name="Pfad 5661" d="M44.673,53.915A5.067,5.067,0,0,1,40.7,52.271a6.656,6.656,0,0,1-1.509-4.52,6.949,6.949,0,0,1,.959-3.835,7.582,7.582,0,0,1,2.875-2.6,10.726,10.726,0,0,1,4.246-.959,14.135,14.135,0,0,1,3.562.411A10.735,10.735,0,0,1,53.708,42V52.545a.63.63,0,0,1-.822.822H50.152c-.137,0-.411,0-.411-.137l-.274-.274-.413-.822a6.1,6.1,0,0,1-4.382,1.781Zm1.918-3.562a2.184,2.184,0,0,0,1.644-.548,1.588,1.588,0,0,0,.548-1.371V44.326a3.273,3.273,0,0,0-1.233-.274,2.555,2.555,0,0,0-2.192.959,4.09,4.09,0,0,0-.822,2.739c0,1.645.685,2.6,2.054,2.6Z" transform="translate(17.654 -27.206)" fill="#fff"/>
    <path id="Pfad_5662" data-name="Pfad 5662" d="M49.4,53.426a2.123,2.123,0,0,1-1.1-.274,1.156,1.156,0,0,1-.274-.959V41.509a.63.63,0,0,1,.822-.822h2.739c.274,0,.411,0,.411.137.137,0,.137.137.274.274l.137.822a4.416,4.416,0,0,1,1.918-1.1,8.238,8.238,0,0,1,2.739-.411,4.481,4.481,0,0,1,4.794,4.794V52.2a1.6,1.6,0,0,1-.274.959c-.137.274-.548.274-1.1.274h-2.6a2.123,2.123,0,0,1-1.1-.274,1.156,1.156,0,0,1-.274-.959V45.481c0-.548-.137-.959-.411-1.1a1.349,1.349,0,0,0-1.1-.411,1.675,1.675,0,0,0-1.233.411,1.556,1.556,0,0,0-.411,1.1v6.575a1.6,1.6,0,0,1-.274.959c-.137.274-.548.274-1.1.274H49.4Z" transform="translate(25.665 -27.128)" fill="#fff"/>
    <path id="Pfad_5663" data-name="Pfad 5663" d="M63.913,53.848a8.279,8.279,0,0,1-5.753-1.781A5.936,5.936,0,0,1,56.1,47.136a6.325,6.325,0,0,1,.959-3.562,6.175,6.175,0,0,1,2.6-2.329,10.008,10.008,0,0,1,4.11-.822,9.415,9.415,0,0,1,3.014.411,5.507,5.507,0,0,1,2.192,1.1c.137.137.274.274.274.411s-.137.274-.274.548l-1.1,1.918q-.206.411-.411.411c-.137,0-.274-.137-.548-.274a6.4,6.4,0,0,0-1.371-.685,4.925,4.925,0,0,0-1.507-.274,3.111,3.111,0,0,0-2.192.822,3.708,3.708,0,0,0,0,4.655,2.892,2.892,0,0,0,2.192.822,4.925,4.925,0,0,0,1.507-.274,6.4,6.4,0,0,0,1.371-.685c.274-.137.411-.274.548-.274s.274.137.411.411l1.233,2.055a.5.5,0,0,1,.137.411c0,.137-.137.274-.274.411a10.277,10.277,0,0,1-2.466,1.1A5.591,5.591,0,0,1,63.913,53.848Z" transform="translate(32.935 -27.138)" fill="#fff"/>
    <path id="Pfad_5664" data-name="Pfad 5664" d="M69.349,53.915a5.067,5.067,0,0,1-3.973-1.644,6.656,6.656,0,0,1-1.507-4.52,6.949,6.949,0,0,1,.959-3.835,7.583,7.583,0,0,1,2.875-2.6,10.726,10.726,0,0,1,4.246-.959,14.135,14.135,0,0,1,3.562.411A10.734,10.734,0,0,1,78.386,42V52.545a.63.63,0,0,1-.822.822H74.829c-.137,0-.411,0-.411-.137l-.274-.274-.411-.822a5.212,5.212,0,0,1-1.781,1.233A4.9,4.9,0,0,1,69.349,53.915ZM71.4,50.353a2.183,2.183,0,0,0,1.644-.548,1.588,1.588,0,0,0,.548-1.371V44.326a3.273,3.273,0,0,0-1.233-.274,2.554,2.554,0,0,0-2.192.959,4.09,4.09,0,0,0-.822,2.739c-.138,1.645.548,2.6,2.054,2.6Z" transform="translate(39.963 -27.206)" fill="#fff"/>
    <path id="Pfad_5665" data-name="Pfad 5665" d="M87.108,54.817a.55.55,0,0,1-.411.959H82.039c-.137,0-.274-.137-.411-.274l-3.562-4.931v3.835a1.6,1.6,0,0,1-.274.959c-.274.274-.548.274-1.1.274h-2.6a2.123,2.123,0,0,1-1.1-.274,1.979,1.979,0,0,1-.274-.959V39.2A1.6,1.6,0,0,1,73,38.242a1.348,1.348,0,0,1,1.1-.411h2.6a1.348,1.348,0,0,1,1.1.411,1.156,1.156,0,0,1,.274.959v8.767l3.425-4.521c.137-.137.274-.274.411-.274s.274-.137.548-.137h4.11a.583.583,0,0,1,.411.959L82.451,49.2Z" transform="translate(47.958 -29.477)" fill="#fff"/>
    <path id="Pfad_5666" data-name="Pfad 5666" d="M88.373,53.786A12.065,12.065,0,0,1,84.4,53.1a7.209,7.209,0,0,1-2.739-2.192,6.035,6.035,0,0,1-.959-3.562A6.6,6.6,0,0,1,82.62,42.28C83.853,41.047,85.771,40.5,88.1,40.5s4.11.548,5.205,1.781a6.108,6.108,0,0,1,1.781,4.794c0,.822-.411,1.371-1.1,1.371H85.771a2.035,2.035,0,0,0,.822,1.781,4.605,4.605,0,0,0,2.6.548,6.7,6.7,0,0,0,1.781-.137c.548-.137.959-.411,1.507-.548a1.061,1.061,0,0,1,.411-.137c.137,0,.274.137.411.274l.959,1.644a.5.5,0,0,1,.137.411c0,.137-.137.274-.274.411a10.279,10.279,0,0,1-2.466,1.1,26.294,26.294,0,0,0-3.288,0Zm2.054-8.219a1.707,1.707,0,0,0-.548-1.507,3.167,3.167,0,0,0-3.561,0,1.871,1.871,0,0,0-.548,1.507Z" transform="translate(55.185 -27.077)" fill="#fff"/>
    <path id="Pfad_5667" data-name="Pfad 5667" d="M96.788,56.254a21.267,21.267,0,0,1-4.246-.411,8.4,8.4,0,0,1-3.151-1.371.734.734,0,0,1-.411-.548.5.5,0,0,1,.137-.411l1.233-2.055c.137-.274.274-.274.411-.274a.5.5,0,0,1,.411.137,10.605,10.605,0,0,0,2.192.962,7.757,7.757,0,0,0,2.466.411,3.108,3.108,0,0,0,1.782-.411,1.335,1.335,0,0,0,.548-1.233,1.439,1.439,0,0,0-.685-1.233,11.09,11.09,0,0,0-2.466-1.1,14.222,14.222,0,0,1-4.11-2.192,4.452,4.452,0,0,1-1.507-3.425,4.688,4.688,0,0,1,1.918-3.973,7.8,7.8,0,0,1,4.931-1.371,13.786,13.786,0,0,1,3.7.411,9.288,9.288,0,0,1,2.6,1.1c.274.274.411.411.411.685a.5.5,0,0,1-.137.411l-1.234,2.055c-.137.274-.274.274-.411.274a.5.5,0,0,1-.411-.137,6.2,6.2,0,0,0-3.7-.959,3.109,3.109,0,0,0-1.781.411,1.335,1.335,0,0,0-.548,1.233,1.98,1.98,0,0,0,.274.959c.274.274.548.411.822.685.411.137.959.411,1.644.685l.548.137a15.318,15.318,0,0,1,3.014,1.507A4.452,4.452,0,0,1,102.815,49a4.691,4.691,0,0,1,.548,2.466,4.254,4.254,0,0,1-1.781,3.7A9.463,9.463,0,0,1,96.788,56.254Z" transform="translate(62.661 -29.545)" fill="#fff"/>
    <path id="Pfad_5668" data-name="Pfad 5668" d="M101.646,53.306c-.274,0-.411,0-.548-.137a.712.712,0,0,1-.274-.548L97.4,41.251v-.274c0-.274.137-.411.548-.411h3.425c.274,0,.411,0,.548.137a1.053,1.053,0,0,1,.274.411l1.371,6.027,1.781-4.794c.137-.274.137-.411.274-.411.137-.137.274-.137.548-.137h1.644c.274,0,.411,0,.548.137s.137.274.274.411l1.781,4.794,1.506-6.027c0-.137.137-.274.274-.411a.5.5,0,0,1,.411-.137h3.562c.411,0,.548.137.548.411v.274L113.29,52.62c-.137.274-.137.411-.274.548s-.274.137-.548.137h-2.6c-.274,0-.411,0-.548-.137a.712.712,0,0,1-.274-.548l-1.781-4.794-1.781,4.794c-.137.274-.137.411-.274.548s-.274.137-.548.137Z" transform="translate(70.268 -27.007)" fill="#fff"/>
    <path id="Pfad_5669" data-name="Pfad 5669" d="M113.445,53.914a5.067,5.067,0,0,1-3.973-1.644,6.656,6.656,0,0,1-1.507-4.521,6.949,6.949,0,0,1,.959-3.835,7.582,7.582,0,0,1,2.875-2.6,10.726,10.726,0,0,1,4.246-.959,14.135,14.135,0,0,1,3.562.411A10.735,10.735,0,0,1,122.482,42V52.545a.63.63,0,0,1-.822.822H118.92a.5.5,0,0,1-.411-.137l-.274-.274-.411-.822a5.212,5.212,0,0,1-1.781,1.233,4.9,4.9,0,0,1-2.6.548Zm2.055-3.562a2.183,2.183,0,0,0,1.644-.548,1.588,1.588,0,0,0,.548-1.371V44.326a3.273,3.273,0,0,0-1.233-.274,2.555,2.555,0,0,0-2.192.959,4.09,4.09,0,0,0-.822,2.739c-.138,1.645.547,2.6,2.054,2.6Z" transform="translate(79.838 -27.205)" fill="#fff"/>
    <path id="Pfad_5670" data-name="Pfad 5670" d="M118.193,58.717a2.123,2.123,0,0,1-1.1-.274,1.98,1.98,0,0,1-.274-.959V42.416a8.757,8.757,0,0,1,3.014-1.371,11.538,11.538,0,0,1,3.7-.547c5.342,0,7.945,2.192,7.945,6.712a7.149,7.149,0,0,1-1.644,4.931,6.108,6.108,0,0,1-4.794,1.781,6.875,6.875,0,0,1-1.644-.274,4.1,4.1,0,0,1-1.371-.548v4.381a1.6,1.6,0,0,1-.274.959c-.274.274-.548.274-1.1.274Zm5.753-8.492a1.657,1.657,0,0,0,1.644-.822,3.919,3.919,0,0,0,.548-2.329,4.069,4.069,0,0,0-.685-2.466,2.835,2.835,0,0,0-2.055-.685,3.437,3.437,0,0,0-1.371.274v4.11a1.873,1.873,0,0,0,1.918,1.918Z" transform="translate(87.83 -27.076)" fill="#fff"/>
    <path id="Pfad_5671" data-name="Pfad 5671" d="M15.516,38.79a4.493,4.493,0,1,1,8.9-.822v5.479h3.7V37.968a4.493,4.493,0,1,1,8.9.822l-1.233,6.438c4.11,1.781,7.26,4.931,7.26,8.9v2.329c0,3.287-2.192,6.027-5.205,7.808A21.924,21.924,0,0,1,26.2,67.283a21.924,21.924,0,0,1-11.644-3.014c-3.014-1.781-5.205-4.521-5.205-7.808V54.132c0-3.973,3.151-7.123,7.26-8.9Zm18.767,7.4,1.371-7.534a3.11,3.11,0,1,0-6.166-.548v6.988c-.411,0-.959-.137-1.371-.137H26.338a9.044,9.044,0,0,0-1.918.137c-.411,0-.959.137-1.371.137V38.242a3.11,3.11,0,1,0-6.164.548l1.371,7.671c-4.384,1.644-7.4,4.656-7.4,8.082v2.329c0,5.205,6.849,9.452,15.342,9.452s15.342-4.246,15.342-9.452V54.543C41.68,50.845,38.666,47.831,34.283,46.187Z" transform="translate(-9.352 -33.45)" fill="#633001" fill-rule="evenodd"/>
    <path id="Pfad_5672" data-name="Pfad 5672" d="M40.9,46.713c0,5.205-6.849,9.452-15.342,9.452s-15.342-4.246-15.342-9.452V44.384H41.035v2.329Z" transform="translate(-8.57 -23.565)" fill="#fedc90"/>
    <path id="Pfad_5673" data-name="Pfad 5673" d="M16.04,37.868A3.11,3.11,0,1,1,22.2,37.32v7.124a26.605,26.605,0,0,1,3.287-.274c1.1,0,2.192.137,3.151.137V37.32a3.11,3.11,0,1,1,6.164.548L33.435,45.4c4.522,1.645,7.536,4.66,7.536,8.083,0,5.205-6.849,9.452-15.342,9.452S10.286,58.69,10.286,53.484c0-3.425,3.014-6.438,7.4-8.082Z" transform="translate(-8.505 -32.802)" fill="#d1884f" fill-rule="evenodd"/>
    <path id="Pfad_5674" data-name="Pfad 5674" d="M17.6,45.26c0,1.371-.822,2.6-1.644,2.6s-1.644-1.1-1.644-2.6c0-1.371.822-2.6,1.644-2.6S17.6,43.753,17.6,45.26Z" transform="translate(-4.862 -25.126)" fill="#633001"/>
    <path id="Pfad_5675" data-name="Pfad 5675" d="M23.789,45.26c0,1.371-.822,2.6-1.644,2.6-.959,0-1.644-1.1-1.644-2.6,0-1.371.822-2.6,1.644-2.6S23.789,43.753,23.789,45.26Z" transform="translate(0.731 -25.126)" fill="#633001"/>
  </g>
</svg>
