<svg xmlns="http://www.w3.org/2000/svg" width="124.154" height="51.713" viewBox="0 0 124.154 51.713">
  <g id="logo-spinel" transform="translate(0)">
    <g id="Gruppe_6" data-name="Gruppe 6" transform="translate(0 0)">
      <g id="Gruppe_5" data-name="Gruppe 5" transform="translate(0 0)">
        <g id="Gruppe_4" data-name="Gruppe 4">
          <path id="Pfad_1" data-name="Pfad 1" d="M471.93,241.235l.376-1.2,9.362,9.561-2.381,17.838-.281-.223Z" transform="translate(-471.93 -218.514)" fill="#e1e1ff"/>
          <g id="Gruppe_3" data-name="Gruppe 3" transform="translate(0.762)">
            <path id="Pfad_2" data-name="Pfad 2" d="M501.48,51.8,479.661,68.179,478.6,72.005l9.993,9.532L502.64,51.8Z" transform="translate(-478.6 -51.8)" fill="#e1e1ff"/>
            <path id="Pfad_3" data-name="Pfad 3" d="M580.067,51.8h3.513l21.794,17.745.454,1.7L566.02,81.537Z" transform="translate(-556.027 -51.8)" fill="#4444bc"/>
          </g>
        </g>
        <path id="Pfad_4" data-name="Pfad 4" d="M551.53,325.88l-2.42,18.025,1.406,1.112,21.554-14.678Z" transform="translate(-540.288 -294.551)" fill="#a3a3ef"/>
        <path id="Pfad_5" data-name="Pfad 5" d="M609.874,233.48l.1.35L590.82,248.5l-20.54-4.459Z" transform="translate(-559.038 -212.713)" fill="#6a6aea"/>
        <path id="Pfad_6" data-name="Pfad 6" d="M561.53,379.568l1.573,1.246,28.933-.1,1.385-1.1L583.084,364.89Z" transform="translate(-551.288 -329.101)" fill="#7a7aea"/>
        <path id="Pfad_7" data-name="Pfad 7" d="M769.13,236.22l.85,3.167-7.1,24.241-2.562,2.028L749.97,250.928Z" transform="translate(-718.188 -215.139)" fill="#3636a3"/>
      </g>
    </g>
    <g id="Gruppe_7" data-name="Gruppe 7" transform="translate(62.801 17.302)">
      <path id="Pfad_8" data-name="Pfad 8" d="M1021.33,217.488l1.422-1.227c.893,3.206,3.931,4.378,6.384,4.378,2.286,0,4.293-.92,4.293-3.29,0-2.2-1.534-2.982-4.377-3.652l-2.036-.446c-2.621-.613-5.13-1.756-5.13-5.018,0-3.317,2.871-5.074,6.023-5.074,3.429,0,5.994,1.534,7.081,4.349l-1.533,1.227a5.377,5.377,0,0,0-5.576-3.848c-2.259,0-4.07,1.171-4.07,3.206s1.366,2.871,3.792,3.457l2.2.529c2.871.67,5.465,1.784,5.465,5.214,0,3.262-2.7,5.047-6.134,5.047C1025.763,222.34,1022.529,220.946,1021.33,217.488Z" transform="translate(-1021.33 -203.16)" fill="#6a6aea"/>
      <path id="Pfad_9" data-name="Pfad 9" d="M1153.22,267.654V249.085h1.84V252.6a4.453,4.453,0,0,1,4.461-3.848c3.485,0,5.576,2.788,5.576,7,0,4.239-2.091,7-5.576,7a4.454,4.454,0,0,1-4.461-3.82v8.726h-1.84Zm5.744-6.469c2.426,0,4.266-1.673,4.266-5.436s-1.84-5.436-4.266-5.436c-2.7,0-3.9,1.951-3.9,4.181V257C1155.06,259.234,1156.259,261.186,1158.964,261.186Z" transform="translate(-1138.144 -243.539)" fill="#6a6aea"/>
      <path id="Pfad_10" data-name="Pfad 10" d="M1272.24,208.24v-2.9h1.84v2.9Zm0,15.78V210.637h1.84V224.02Z" transform="translate(-1243.559 -205.091)" fill="#6a6aea"/>
      <path id="Pfad_11" data-name="Pfad 11" d="M1310.28,262.893V249.51h1.84v3.736a4.69,4.69,0,0,1,4.684-4.016c2.648,0,4.433,1.561,4.433,4.628v9.034h-1.84v-8.615c0-2.174-1-3.513-3.317-3.513-2.817,0-3.958,2.063-3.958,4.378v7.75h-1.841Z" transform="translate(-1277.251 -243.964)" fill="#6a6aea"/>
      <path id="Pfad_12" data-name="Pfad 12" d="M1420.27,256.21c0-4.349,2.482-6.97,6.105-6.97,3.652,0,5.938,2.454,5.938,6.5a7.022,7.022,0,0,1-.083.892h-10.2c.112,3.346,1.924,5.018,4.572,5.018a4.467,4.467,0,0,0,4.461-2.788l1.116,1.311a6.087,6.087,0,0,1-5.576,3.011C1422.863,263.181,1420.27,260.643,1420.27,256.21Zm1.784-.92h8.587c-.167-3.011-1.812-4.544-4.266-4.544S1422.3,252.279,1422.054,255.29Z" transform="translate(-1374.668 -243.973)" fill="#6a6aea"/>
      <path id="Pfad_13" data-name="Pfad 13" d="M1541.97,224.02V205.34h1.84v18.68Z" transform="translate(-1482.457 -205.091)" fill="#6a6aea"/>
    </g>
  </g>
</svg>
