<svg xmlns="http://www.w3.org/2000/svg" width="90.103" height="27.579" viewBox="0 0 90.103 27.579">
  <g id="whitebit-1-1" transform="translate(-0.61 -0.844)">
    <path id="Pfad_27" data-name="Pfad 27" d="M33.681,24.265h1.177l.963,2.725,1.036-2.726h.72L38.6,26.96l.964-2.695h1.184L39,29.055h-.762l-1.021-2.73-1.052,2.73h-.753l-1.726-4.79Zm7.747-1.85h1.193v2.334a2.736,2.736,0,0,1,.709-.456,1.826,1.826,0,0,1,.722-.152,1.626,1.626,0,0,1,1.2.493,1.722,1.722,0,0,1,.418,1.255v3.166H44.489v-2.1a5.183,5.183,0,0,0-.079-1.127.786.786,0,0,0-.271-.44.761.761,0,0,0-.473-.145.891.891,0,0,0-.627.242,1.286,1.286,0,0,0-.363.66,5.486,5.486,0,0,0-.053.986v1.924H41.429v-6.64Zm5.876-.123a.734.734,0,0,1,.543.229.76.76,0,0,1,.226.555.752.752,0,0,1-.225.548.727.727,0,0,1-.535.227.738.738,0,0,1-.547-.231.773.773,0,0,1-.225-.561.764.764,0,0,1,.763-.766Zm-.6,1.973h1.2v4.79H46.7ZM49.143,22.5h1.2v1.766h.713V25.3h-.713v3.756h-1.2V25.3h-.617V24.265h.617ZM56.5,27.008H52.639a1.288,1.288,0,0,0,.447.812,1.4,1.4,0,0,0,.927.3,1.6,1.6,0,0,0,1.158-.471l1.013.476a2.391,2.391,0,0,1-.907.795,2.837,2.837,0,0,1-1.255.258,2.478,2.478,0,0,1-1.836-.711,2.418,2.418,0,0,1-.709-1.781,2.5,2.5,0,0,1,.707-1.821,2.372,2.372,0,0,1,1.772-.724,2.459,2.459,0,0,1,1.84.724,2.62,2.62,0,0,1,.709,1.913Zm-1.2-.947a1.205,1.205,0,0,0-.47-.652,1.361,1.361,0,0,0-.814-.251,1.438,1.438,0,0,0-.882.282,1.57,1.57,0,0,0-.441.621H55.3Zm5.167-3.769a.733.733,0,0,1,.542.229.788.788,0,0,1,0,1.1.726.726,0,0,1-.536.227.738.738,0,0,1-.547-.231.779.779,0,0,1,.538-1.328Zm-.6,1.973h1.2v4.79h-1.2Zm5.226.669-.744.744a1.259,1.259,0,0,0-.823-.449.518.518,0,0,0-.317.086.256.256,0,0,0-.042.392,1.353,1.353,0,0,0,.359.223l.44.22a2.6,2.6,0,0,1,.955.7,1.458,1.458,0,0,1-.209,1.9,1.8,1.8,0,0,1-1.257.427,2,2,0,0,1-1.673-.819l.74-.806a1.715,1.715,0,0,0,.5.4,1.1,1.1,0,0,0,.5.152.6.6,0,0,0,.383-.115.333.333,0,0,0,.145-.264q0-.278-.524-.542l-.405-.2q-1.162-.586-1.162-1.466a1.27,1.27,0,0,1,.438-.971,1.591,1.591,0,0,1,1.12-.4,1.945,1.945,0,0,1,1.576.793Zm8.247.3-1,.55a1.484,1.484,0,0,0-1.2-.524,1.507,1.507,0,0,0-1.091.4,1.369,1.369,0,0,0-.417,1.031,1.328,1.328,0,0,0,.4,1,1.453,1.453,0,0,0,1.054.387,1.531,1.531,0,0,0,1.256-.55l.948.649a2.92,2.92,0,0,1-4.155.254,2.49,2.49,0,0,1,.6-3.954,2.9,2.9,0,0,1,1.394-.334,2.825,2.825,0,0,1,1.281.284,2.433,2.433,0,0,1,.929.808Zm.951-2.818h1.2v6.64h-1.2Zm7.093,4.593H77.521a1.287,1.287,0,0,0,.447.812,1.4,1.4,0,0,0,.927.3,1.6,1.6,0,0,0,1.158-.471l1.013.476a2.392,2.392,0,0,1-.907.795,2.837,2.837,0,0,1-1.255.258,2.479,2.479,0,0,1-1.836-.711,2.419,2.419,0,0,1-.709-1.781,2.5,2.5,0,0,1,.707-1.821,2.372,2.372,0,0,1,1.772-.724,2.46,2.46,0,0,1,1.84.724,2.616,2.616,0,0,1,.709,1.913l0,.229Zm-1.2-.947a1.205,1.205,0,0,0-.47-.652,1.361,1.361,0,0,0-.814-.251,1.438,1.438,0,0,0-.882.282,1.57,1.57,0,0,0-.441.621H80.18Zm5.711-1.8h1.2v4.791h-1.2v-.506a2.35,2.35,0,0,1-.706.482,1.978,1.978,0,0,1-.767.148,2.133,2.133,0,0,1-1.605-.72,2.512,2.512,0,0,1-.677-1.79,2.574,2.574,0,0,1,.655-1.818,2.086,2.086,0,0,1,1.592-.709,2.021,2.021,0,0,1,.809.163,2.214,2.214,0,0,1,.7.489v-.528Zm-1.264.987a1.214,1.214,0,0,0-.926.394,1.573,1.573,0,0,0,.007,2.032,1.213,1.213,0,0,0,.924.4,1.239,1.239,0,0,0,.939-.394,1.44,1.44,0,0,0,.373-1.032,1.4,1.4,0,0,0-.373-1.013,1.252,1.252,0,0,0-.944-.387Zm3.4-.987h1.03v.6a1.285,1.285,0,0,1,.445-.541,1.073,1.073,0,0,1,.608-.185,1.123,1.123,0,0,1,.489.124L90.224,25.3a.827.827,0,0,0-.348-.106.551.551,0,0,0-.469.343,3.143,3.143,0,0,0-.192,1.348l0,.233v1.937H88.026v-4.79ZM.61,6.533H3.552L5.96,13.347,8.551,6.533h1.8l2.545,6.737,2.411-6.737h2.961L13.9,18.51h-1.9L9.438,11.685,6.807,18.51H4.925L.61,6.533ZM19.978,1.91h2.983V7.744A6.857,6.857,0,0,1,24.734,6.6a4.576,4.576,0,0,1,1.806-.379,4.067,4.067,0,0,1,3,1.233A4.31,4.31,0,0,1,30.59,10.6V18.51H27.629V13.259a12.962,12.962,0,0,0-.2-2.818,1.966,1.966,0,0,0-.677-1.1,1.9,1.9,0,0,0-1.183-.363A2.232,2.232,0,0,0,24,9.583a3.209,3.209,0,0,0-.908,1.651,13.673,13.673,0,0,0-.132,2.466V18.51H19.978V1.91ZM36.171,8.036a1.5,1.5,0,1,0-3.007,0V18.51H36.17V8.036Zm21.487,5.355H48a3.215,3.215,0,0,0,1.117,2.031,3.507,3.507,0,0,0,2.317.754A4.005,4.005,0,0,0,54.333,15l2.532,1.189A5.98,5.98,0,0,1,54.6,18.174a7.1,7.1,0,0,1-3.137.644,6.2,6.2,0,0,1-4.59-1.778A6.048,6.048,0,0,1,45.1,12.588a6.256,6.256,0,0,1,1.767-4.552,5.931,5.931,0,0,1,4.43-1.81,6.155,6.155,0,0,1,4.6,1.811,6.545,6.545,0,0,1,1.772,4.783l-.011.572Zm-3-2.367A3.017,3.017,0,0,0,53.478,9.4a3.4,3.4,0,0,0-2.034-.628,3.6,3.6,0,0,0-2.205.7,3.931,3.931,0,0,0-1.1,1.552ZM42.269,6.533V2.119h-3V18.51h3V9.12h1.783V6.533Z" transform="translate(0 -0.757)" fill="#fff"/>
    <path id="Pfad_28" data-name="Pfad 28" d="M23.65,90.86h1.516v1.516H23.65Zm-20.937,0H1.2v1.516H2.713Zm5.993,0h1.516v1.516H8.706Zm8.952,0H16.142v1.516h1.516Zm15.017,0H31.159v1.516h1.516Z" transform="translate(-0.417 -63.969)" fill="#fff" fill-rule="evenodd"/>
    <path id="Pfad_29" data-name="Pfad 29" d="M36.625,90.86h1.516v1.516H36.625Zm-20.937,0H14.172v1.516h1.516Zm5.993,0H23.2v1.516H21.68V90.86Zm8.952,0H29.117v1.516h1.516Z" transform="translate(-9.638 -63.969)" fill="#cfb764" fill-rule="evenodd"/>
    <path id="Pfad_30" data-name="Pfad 30" d="M155.787,1.56h3.06V17.752h-3.06Zm4.931,0h8.949V4.6h-2.95V17.752h-3.126V4.6h-2.873V1.56ZM146.041,7.51l-.3.583a1.026,1.026,0,0,0-.072.163.389.389,0,0,0-.017.114.372.372,0,0,0,.109.264.382.382,0,0,0,.657-.266.376.376,0,0,0-.109-.276.358.358,0,0,0-.2-.105l.179-.349-.254-.127Zm.09.855a.1.1,0,0,1-.058.1.086.086,0,0,1-.1-.023.113.113,0,0,1,0-.148.084.084,0,0,1,.064-.028.087.087,0,0,1,.068.028.1.1,0,0,1,.028.073Zm1.324-5.355-.481.716-.008.011v.248h.472v.222h.29V3.985h.1V3.706h-.1v-.7h-.273Zm-.135.7.119-.175v.175Zm-6.162,9.451.394-.807h-.427v-.282h.8l0,.172-.508,1.04-.253-.123Zm4.958,2.8a.147.147,0,0,0,0-.189.1.1,0,0,0-.122-.022.2.2,0,0,0-.052.041l-.018.019-.235-.053.147-.679h.587v.279h-.361l-.022.1h.012a.369.369,0,0,1,.276.113.392.392,0,0,1,.11.288.409.409,0,0,1-.12.3.4.4,0,0,1-.293.122.4.4,0,0,1-.411-.329l-.012-.054h.3l.012.024a.142.142,0,0,0,.051.06.119.119,0,0,0,.15-.017Zm-.137-5.816a.37.37,0,0,0,.112-.271.376.376,0,0,0-.109-.276.359.359,0,0,0-.2-.106l.179-.348-.254-.127-.3.582a1.028,1.028,0,0,0-.072.163.387.387,0,0,0-.017.114.372.372,0,0,0,.109.264.386.386,0,0,0,.545,0Zm-.365-.274a.1.1,0,0,1,.027-.074.08.08,0,0,1,.064-.028.087.087,0,0,1,.068.028.1.1,0,0,1,.028.073.1.1,0,0,1-.058.1.086.086,0,0,1-.1-.022A.1.1,0,0,1,145.613,9.87Zm6.326,3.368v-.222h.1v-.279h-.1v-.7h-.273l-.481.716-.007.011v.248h.472v.222h.29Zm-.409-.5.119-.175v.175ZM145.1,10.209a.351.351,0,0,0,.143-.136.385.385,0,0,0,.053-.2.37.37,0,0,0-.133-.288.383.383,0,0,0,.054-.087.311.311,0,0,0,.025-.125.35.35,0,0,0-.047-.176.334.334,0,0,0-.131-.128.43.43,0,0,0-.378,0,.324.324,0,0,0-.132.124.343.343,0,0,0,.031.393.4.4,0,0,0-.087.11.369.369,0,0,0-.042.176.385.385,0,0,0,.052.2.346.346,0,0,0,.142.134.512.512,0,0,0,.227.043.48.48,0,0,0,.221-.045Zm-.172-.761a.076.076,0,0,1-.13-.057.073.073,0,0,1,0-.029.077.077,0,0,1,.016-.025.066.066,0,0,1,.051-.02.079.079,0,0,1,.058.021.068.068,0,0,1,.02.053.076.076,0,0,1-.021.058Zm-.145.337a.137.137,0,0,1,.1-.034.129.129,0,0,1,.091.033.1.1,0,0,1,.035.08.1.1,0,0,1-.008.042.1.1,0,0,1-.025.035.158.158,0,0,1-.191,0,.1.1,0,0,1-.034-.079.1.1,0,0,1,.036-.075Zm2.839,6.463V15.36h-.258l.173-.281h.377v1.17Zm-3.6-.816a.309.309,0,0,0-.093.23.345.345,0,0,0,.041.17.291.291,0,0,0,.116.115.368.368,0,0,0,.315.012.551.551,0,0,0,.15-.113l.032-.032.2.209-.031.031a.786.786,0,0,1-.24.171.659.659,0,0,1-.26.049.6.6,0,0,1-.444-.172.648.648,0,0,1-.094-.751.586.586,0,0,1,.226-.218.662.662,0,0,1,.82.15l.027.032-.207.2-.03-.032a.4.4,0,0,0-.3-.141.312.312,0,0,0-.23.093h0Zm1.176.843a.388.388,0,0,0,.273-.658.359.359,0,0,0-.2-.105l.179-.349-.254-.127-.3.583a1.048,1.048,0,0,0-.072.163.389.389,0,0,0-.017.114.372.372,0,0,0,.109.264.367.367,0,0,0,.275.115h0Zm-.095-.384a.1.1,0,0,1,.027-.074.08.08,0,0,1,.064-.028.087.087,0,0,1,.068.028.1.1,0,0,1,.028.073.107.107,0,0,1-.058.1.087.087,0,0,1-.1-.022.1.1,0,0,1-.028-.074Zm3.131.276.394-.807H148.2v-.281h.8l0,.172-.508,1.04ZM146.86,9.686a1.046,1.046,0,0,0,.072-.163.373.373,0,0,0-.092-.377.382.382,0,0,0-.657.266.374.374,0,0,0,.109.275.359.359,0,0,0,.2.106l-.18.349.254.127.3-.584Zm-.2-.271a.1.1,0,0,1-.027.073.089.089,0,0,1-.066.028.091.091,0,0,1-.066-.029.1.1,0,0,1-.028-.073.1.1,0,0,1,.028-.074.091.091,0,0,1,.1-.021.085.085,0,0,1,.028.021A.1.1,0,0,1,146.659,9.415Zm-1.387-.981a.145.145,0,0,0,0-.189.1.1,0,0,0-.122-.022.2.2,0,0,0-.052.041l-.018.019-.235-.053L145,7.552h.587v.279h-.361l-.022.1h.012a.369.369,0,0,1,.276.114.4.4,0,0,1,.11.288.409.409,0,0,1-.12.3.4.4,0,0,1-.293.122.406.406,0,0,1-.411-.329l-.012-.054h.3l.013.024a.143.143,0,0,0,.05.06.119.119,0,0,0,.15-.017Zm6.338,2.725a.932.932,0,0,0,.05.345.412.412,0,0,0,.146.192.4.4,0,0,0,.23.064.387.387,0,0,0,.227-.064.422.422,0,0,0,.143-.2,1.248,1.248,0,0,0,0-.7.41.41,0,0,0-.148-.2.4.4,0,0,0-.229-.066.372.372,0,0,0-.321.166.817.817,0,0,0-.1.457Zm.294,0a.983.983,0,0,1,.02-.227.177.177,0,0,1,.048-.093.1.1,0,0,1,.063-.023c.022,0,.055.007.087.059a.568.568,0,0,1,.042.272.579.579,0,0,1-.047.277.088.088,0,0,1-.081.053.1.1,0,0,1-.089-.058.519.519,0,0,1-.042-.26ZM141.5,4.5l-.3.583a1.051,1.051,0,0,0-.072.163.372.372,0,0,0,.092.377.385.385,0,0,0,.548-.542.359.359,0,0,0-.2-.106l.179-.348Zm.09.855a.1.1,0,0,1-.028.075.086.086,0,0,1-.13,0,.113.113,0,0,1,0-.148.08.08,0,0,1,.063-.027.089.089,0,0,1,.068.028.094.094,0,0,1,.022.034.092.092,0,0,1,.006.04Zm0,3.084a.11.11,0,0,0,.02-.135.112.112,0,0,0-.032-.036.258.258,0,0,0-.158-.043h-.044V7.963l.041,0a.284.284,0,0,0,.1-.019.094.094,0,0,0,.038-.032.071.071,0,0,0,.013-.04.054.054,0,0,0,0-.022.055.055,0,0,0-.013-.019.069.069,0,0,0-.051-.017.086.086,0,0,0-.054.018.1.1,0,0,0-.034.047l-.009.031h-.281l.006-.05a.368.368,0,0,1,.378-.333.361.361,0,0,1,.253.1.312.312,0,0,1,.1.233.277.277,0,0,1-.1.22.321.321,0,0,1,.16.283.372.372,0,0,1-.121.278.427.427,0,0,1-.3.113.4.4,0,0,1-.288-.107.415.415,0,0,1-.122-.288l0-.047h.288l.006.037a.162.162,0,0,0,.045.1.134.134,0,0,0,.173,0ZM144.1,3.5a.253.253,0,0,0,.035-.114.1.1,0,0,0-.029-.072.106.106,0,0,0-.078-.029.107.107,0,0,0-.075.036.162.162,0,0,0-.036.105v.043h-.29l0-.046a.44.44,0,0,1,.123-.3.4.4,0,0,1,.292-.113.4.4,0,0,1,.2.047.354.354,0,0,1,.138.137.361.361,0,0,1,.051.181.521.521,0,0,1-.059.227,1.182,1.182,0,0,1-.208.274l-.051.053h.326v.278H143.6V4.046l.347-.354A.944.944,0,0,0,144.1,3.5Zm.259,4.005-.3.583a1.026,1.026,0,0,0-.072.163.377.377,0,0,0,.011.256.37.37,0,0,0,.081.121.382.382,0,0,0,.657-.266.376.376,0,0,0-.109-.276.36.36,0,0,0-.2-.105l.179-.349Zm.09.855a.1.1,0,0,1-.058.1.086.086,0,0,1-.1-.023.113.113,0,0,1,0-.148.085.085,0,0,1,.064-.028.089.089,0,0,1,.068.028A.1.1,0,0,1,144.445,8.365Zm-.421,5.166-.3.583a1.047,1.047,0,0,0-.072.163.4.4,0,0,0-.017.113.372.372,0,0,0,.109.264.382.382,0,0,0,.657-.266.376.376,0,0,0-.109-.276.36.36,0,0,0-.2-.105l.179-.349-.254-.127Zm.09.855a.1.1,0,0,1-.058.1.086.086,0,0,1-.1-.023.113.113,0,0,1,0-.148.084.084,0,0,1,.064-.028.089.089,0,0,1,.068.028A.1.1,0,0,1,144.115,14.386ZM141.126,11.5a.412.412,0,0,0,.146.192.4.4,0,0,0,.23.064.387.387,0,0,0,.227-.064.423.423,0,0,0,.143-.2.662.662,0,0,0,.035-.131v.141h.472v.222h.29v-.222h.1v-.279h-.1v-.7H142.4l-.475.707c0-.03,0-.061,0-.094a.976.976,0,0,0-.05-.348.409.409,0,0,0-.148-.2.4.4,0,0,0-.229-.066.374.374,0,0,0-.321.166.82.82,0,0,0-.1.457.936.936,0,0,0,.05.345Zm1.135-.271.119-.175v.175Zm-.891-.069a1,1,0,0,1,.02-.227.179.179,0,0,1,.047-.093.1.1,0,0,1,.064-.023c.022,0,.055.007.087.06a.57.57,0,0,1,.042.271.581.581,0,0,1-.047.277.088.088,0,0,1-.081.053.1.1,0,0,1-.089-.058A.519.519,0,0,1,141.37,11.163Zm2.655-2.147-.3.582a1.052,1.052,0,0,0-.072.163.4.4,0,0,0-.017.114.372.372,0,0,0,.109.264.382.382,0,0,0,.657-.266A.376.376,0,0,0,144.3,9.6a.36.36,0,0,0-.2-.106l.179-.348-.254-.127Zm.09.854a.1.1,0,0,1-.058.1.086.086,0,0,1-.1-.022.113.113,0,0,1,0-.148.084.084,0,0,1,.064-.028.089.089,0,0,1,.068.028A.1.1,0,0,1,144.115,9.87Zm-.924-2.611.3-.584a1.076,1.076,0,0,0,.072-.163.385.385,0,0,0-.012-.256.372.372,0,0,0-.081-.121.385.385,0,1,0-.352.648l-.18.349ZM143.1,6.4a.1.1,0,0,1,.029-.074A.088.088,0,0,1,143.2,6.3a.085.085,0,0,1,.063.029.1.1,0,0,1,.029.075.1.1,0,0,1-.027.073.092.092,0,0,1-.132,0A.1.1,0,0,1,143.1,6.4Zm5.229.529a.111.111,0,0,0-.013-.171.256.256,0,0,0-.158-.043h-.044V6.458l.041,0a.286.286,0,0,0,.1-.019.1.1,0,0,0,.038-.032.071.071,0,0,0,.013-.039.054.054,0,0,0-.017-.041.069.069,0,0,0-.051-.017.086.086,0,0,0-.054.018.1.1,0,0,0-.034.047l-.01.031h-.28l.006-.049a.368.368,0,0,1,.378-.332.359.359,0,0,1,.33.2.309.309,0,0,1,.027.128.28.28,0,0,1-.1.22.305.305,0,0,1,.1.084.322.322,0,0,1,.065.2.372.372,0,0,1-.121.278.425.425,0,0,1-.3.113.4.4,0,0,1-.288-.107.415.415,0,0,1-.122-.288l0-.046h.288l.006.037a.164.164,0,0,0,.044.1.135.135,0,0,0,.173,0Zm-6.405-1.571a.386.386,0,0,0,.052.2.344.344,0,0,0,.142.134.516.516,0,0,0,.227.043.486.486,0,0,0,.221-.045.35.35,0,0,0,.143-.136.387.387,0,0,0,.008-.377.37.37,0,0,0-.087-.107.378.378,0,0,0,.054-.086.306.306,0,0,0,.025-.125.35.35,0,0,0-.047-.176.335.335,0,0,0-.13-.128.431.431,0,0,0-.378,0,.325.325,0,0,0-.132.124.338.338,0,0,0-.047.177.327.327,0,0,0,.028.135.36.36,0,0,0,.05.082.372.372,0,0,0-.129.286Zm.471-.429a.075.075,0,0,1-.084.016.076.076,0,0,1-.045-.072.071.071,0,0,1,.044-.07.065.065,0,0,1,.028,0,.079.079,0,0,1,.058.021.069.069,0,0,1,.02.053.08.08,0,0,1-.021.058Zm-.05.3a.129.129,0,0,1,.091.034.1.1,0,0,1,.035.08.1.1,0,0,1-.032.076.158.158,0,0,1-.191,0,.1.1,0,0,1-.034-.079.1.1,0,0,1,.036-.075.137.137,0,0,1,.1-.034Zm-.006.77-.3.583a1.053,1.053,0,0,0-.072.163.4.4,0,0,0-.017.114.372.372,0,0,0,.109.264.382.382,0,0,0,.657-.266.376.376,0,0,0-.109-.276.36.36,0,0,0-.2-.105l.179-.349-.254-.127Zm.09.854a.1.1,0,0,1-.058.1.087.087,0,0,1-.1-.022.113.113,0,0,1,0-.148.083.083,0,0,1,.064-.028.089.089,0,0,1,.068.028A.1.1,0,0,1,142.428,6.86Zm.825,4.171a.256.256,0,0,0,.035-.114.094.094,0,0,0-.029-.072.107.107,0,0,0-.153.007.164.164,0,0,0-.036.105V11h-.29l0-.046a.439.439,0,0,1,.123-.3.433.433,0,0,1,.487-.066.356.356,0,0,1,.138.137.361.361,0,0,1,.051.181.515.515,0,0,1-.059.227,1.175,1.175,0,0,1-.208.274l-.051.053h.326v.278h-.837v-.161l.347-.354a.934.934,0,0,0,.154-.187ZM143.182,4.5l-.3.583a1.048,1.048,0,0,0-.072.163.382.382,0,1,0,.641-.165.359.359,0,0,0-.2-.105l.179-.348Zm.09.855a.106.106,0,0,1-.028.075.089.089,0,0,1-.065.03.087.087,0,0,1-.065-.03.114.114,0,0,1,0-.148.08.08,0,0,1,.064-.027.088.088,0,0,1,.068.028.1.1,0,0,1,.022.034.1.1,0,0,1,.006.04ZM142,10.146l.394-.807h-.427V9.058h.8l0,.172-.508,1.04L142,10.146Zm.791-2.011a.6.6,0,0,1,.079-.31.588.588,0,0,1,.226-.218.662.662,0,0,1,.82.15l.027.032-.207.2-.03-.032a.4.4,0,0,0-.3-.141.319.319,0,0,0-.3.2.315.315,0,0,0-.023.124.342.342,0,0,0,.041.17.291.291,0,0,0,.116.115.37.37,0,0,0,.315.012.552.552,0,0,0,.15-.113l.032-.032.2.209-.031.031a.787.787,0,0,1-.24.171.66.66,0,0,1-.26.049.606.606,0,0,1-.444-.172A.6.6,0,0,1,142.79,8.135Zm1.276,3.6h.29v-.222h.1v-.279h-.1v-.7h-.273l-.481.716-.008.011v.248h.472v.222Zm-.119-.5.119-.175v.175Zm-1.886-2.6a.382.382,0,0,0,.657-.266.376.376,0,0,0-.109-.276.36.36,0,0,0-.2-.105l.179-.349-.254-.127-.3.583a1.05,1.05,0,0,0-.072.163.4.4,0,0,0-.017.114.372.372,0,0,0,.109.264Zm.18-.269a.1.1,0,0,1,.027-.074.083.083,0,0,1,.064-.028.089.089,0,0,1,.068.028.1.1,0,0,1,.028.073.1.1,0,0,1-.058.1.086.086,0,0,1-.1-.022.1.1,0,0,1-.029-.074Zm1.563,4.857a.517.517,0,0,0,.227.043.485.485,0,0,0,.221-.045.35.35,0,0,0,.143-.136.383.383,0,0,0,.053-.2.377.377,0,0,0-.045-.181.366.366,0,0,0-.087-.107.379.379,0,0,0,.054-.086.306.306,0,0,0,.025-.125.348.348,0,0,0-.047-.176.333.333,0,0,0-.13-.128.431.431,0,0,0-.378,0,.324.324,0,0,0-.132.124.341.341,0,0,0-.047.177.327.327,0,0,0,.028.135.359.359,0,0,0,.05.082.376.376,0,0,0-.129.286.386.386,0,0,0,.052.2.344.344,0,0,0,.142.134Zm.276-.763a.076.076,0,0,1-.13-.057.072.072,0,0,1,.021-.054.065.065,0,0,1,.051-.02.078.078,0,0,1,.058.021.068.068,0,0,1,.02.053.08.08,0,0,1-.021.058Zm-.05.3a.13.13,0,0,1,.091.034.1.1,0,0,1,.034.08.1.1,0,0,1-.032.076.158.158,0,0,1-.191,0,.1.1,0,0,1-.025-.12.1.1,0,0,1,.026-.033.137.137,0,0,1,.1-.034Zm-1.072,1.945a.4.4,0,0,0,.23.064.387.387,0,0,0,.227-.064.423.423,0,0,0,.143-.2,1.248,1.248,0,0,0,0-.7.41.41,0,0,0-.148-.2.4.4,0,0,0-.229-.066.372.372,0,0,0-.321.166.817.817,0,0,0-.1.457.932.932,0,0,0,.05.345.412.412,0,0,0,.146.192Zm.1-.533a.984.984,0,0,1,.02-.227.177.177,0,0,1,.048-.093.1.1,0,0,1,.063-.023c.022,0,.055.007.087.059a.571.571,0,0,1,.042.272.58.58,0,0,1-.047.277.088.088,0,0,1-.081.053.1.1,0,0,1-.089-.058.515.515,0,0,1-.042-.26Zm-1.93-7.185a.412.412,0,0,0,.146.192.4.4,0,0,0,.23.064.389.389,0,0,0,.227-.064.423.423,0,0,0,.143-.2.977.977,0,0,0,.051-.352.982.982,0,0,0-.05-.349.41.41,0,0,0-.148-.2.4.4,0,0,0-.229-.066.374.374,0,0,0-.321.166.82.82,0,0,0-.1.457A.939.939,0,0,0,141.126,6.988Zm.244-.341a1,1,0,0,1,.02-.227.179.179,0,0,1,.047-.093A.1.1,0,0,1,141.5,6.3c.022,0,.055.007.087.059a.571.571,0,0,1,.042.272.58.58,0,0,1-.047.277.088.088,0,0,1-.081.053.1.1,0,0,1-.089-.058.519.519,0,0,1-.043-.26ZM141.126,10a.409.409,0,0,0,.146.192.4.4,0,0,0,.23.064.389.389,0,0,0,.227-.064.423.423,0,0,0,.143-.2,1.248,1.248,0,0,0,0-.7.409.409,0,0,0-.148-.2.4.4,0,0,0-.229-.066.374.374,0,0,0-.321.166.82.82,0,0,0-.1.457.939.939,0,0,0,.05.345Zm.244-.341a1,1,0,0,1,.02-.227.179.179,0,0,1,.047-.093.1.1,0,0,1,.064-.023c.022,0,.055.007.087.059a.57.57,0,0,1,.042.271.581.581,0,0,1-.047.277.088.088,0,0,1-.081.053.1.1,0,0,1-.089-.058.519.519,0,0,1-.043-.26Zm2.663-3.9.3-.584a1.044,1.044,0,0,0,.072-.163.373.373,0,0,0-.092-.377.382.382,0,0,0-.657.267.379.379,0,0,0,.109.275.361.361,0,0,0,.2.106l-.18.349.254.126Zm-.09-.855a.1.1,0,0,1,.028-.074.091.091,0,0,1,.067-.029.086.086,0,0,1,.063.029.112.112,0,0,1,0,.148.09.09,0,0,1-.132,0,.1.1,0,0,1-.028-.073Zm-1.1,5.247.394-.807h-.427V9.058h.8l0,.172-.508,1.04Zm.81-4.1h.8l0,.172-.508,1.04-.253-.123.394-.807h-.427Zm-.907,8.7h-.837v-.161l.347-.354a.924.924,0,0,0,.154-.187.253.253,0,0,0,.035-.114.094.094,0,0,0-.028-.072.109.109,0,0,0-.153.007.163.163,0,0,0-.036.105v.043h-.29l0-.046a.437.437,0,0,1,.123-.3.4.4,0,0,1,.292-.113.4.4,0,0,1,.2.047.355.355,0,0,1,.138.137.36.36,0,0,1,.051.181.521.521,0,0,1-.059.227,1.174,1.174,0,0,1-.208.274l-.05.053h.326v.278Zm.014-2.5-.508,1.04L142,13.157l.394-.807h-.427v-.282h.8l0,.172Zm.421-.214-.3.583a1.042,1.042,0,0,0-.072.163.382.382,0,1,0,.641-.165.359.359,0,0,0-.2-.105l.179-.348Zm.09.855a.106.106,0,0,1-.028.075.089.089,0,0,1-.065.03.087.087,0,0,1-.065-.03.114.114,0,0,1,0-.148.081.081,0,0,1,.064-.027.088.088,0,0,1,.068.028.1.1,0,0,1,.022.034A.1.1,0,0,1,143.272,12.88ZM141.9,4.206h-.837V4.046l.347-.354a.936.936,0,0,0,.154-.187.256.256,0,0,0,.035-.114.1.1,0,0,0-.065-.094.109.109,0,0,0-.117.029.162.162,0,0,0-.036.105v.043h-.29l0-.046a.44.44,0,0,1,.123-.3.4.4,0,0,1,.293-.113.4.4,0,0,1,.195.047.354.354,0,0,1,.138.137.361.361,0,0,1,.051.181.516.516,0,0,1-.059.227,1.182,1.182,0,0,1-.208.274l-.051.053h.326Zm.491-2.394h-.427V1.532h.8l0,.172-.508,1.04L142,2.62l.394-.807Zm-.843,0h-.427V1.532h.8l0,.172-.508,1.04-.253-.123.394-.807Zm.493,14.355a.417.417,0,0,1-.122-.288l0-.047h.288l.006.037a.161.161,0,0,0,.044.1.135.135,0,0,0,.173,0,.112.112,0,0,0-.013-.171.257.257,0,0,0-.158-.043h-.044v-.261l.041,0a.287.287,0,0,0,.1-.019.1.1,0,0,0,.038-.032.069.069,0,0,0,.013-.04.054.054,0,0,0-.017-.041.069.069,0,0,0-.051-.017.087.087,0,0,0-.054.018.1.1,0,0,0-.034.047l-.01.031h-.281l.007-.05a.366.366,0,0,1,.378-.333.36.36,0,0,1,.253.1.309.309,0,0,1,.1.233.279.279,0,0,1-.1.22.305.305,0,0,1,.1.084.322.322,0,0,1,.065.2.372.372,0,0,1-.121.278.425.425,0,0,1-.3.113.4.4,0,0,1-.287-.107Zm-.551.107a.388.388,0,0,0,.273-.658.359.359,0,0,0-.2-.105l.179-.349-.254-.127-.3.583a1.054,1.054,0,0,0-.072.163.379.379,0,0,0,.093.377.364.364,0,0,0,.275.115Zm-.095-.384a.1.1,0,0,1,.027-.074.081.081,0,0,1,.063-.028.089.089,0,0,1,.068.028.1.1,0,0,1,.028.073.106.106,0,0,1-.028.075.085.085,0,0,1-.1.022.089.089,0,0,1-.029-.022.1.1,0,0,1-.028-.074Zm-.274.693h.8l0,.172-.508,1.04-.253-.123.394-.807h-.427Zm2.055-13.856a.388.388,0,0,0,.273-.657.359.359,0,0,0-.2-.106l.179-.348-.254-.127-.3.582a1.051,1.051,0,0,0-.072.163.379.379,0,0,0,.093.377.367.367,0,0,0,.275.116Zm-.095-.384a.1.1,0,0,1,.027-.074.08.08,0,0,1,.063-.028.089.089,0,0,1,.069.028.1.1,0,0,1,.022.034.1.1,0,0,1,.006.04.106.106,0,0,1-.028.075.089.089,0,0,1-.065.03.086.086,0,0,1-.065-.03A.1.1,0,0,1,143.084,2.344Zm-1.868,12.339a.411.411,0,0,1-.146-.241l-.012-.054h.3l.012.024a.144.144,0,0,0,.051.06.119.119,0,0,0,.15-.017.147.147,0,0,0,0-.189.1.1,0,0,0-.122-.022.2.2,0,0,0-.052.041l-.018.019-.235-.053.148-.678h.587v.279h-.362l-.022.1h.012a.369.369,0,0,1,.276.114.4.4,0,0,1,.11.288.4.4,0,0,1-.12.3.4.4,0,0,1-.294.122A.417.417,0,0,1,141.216,14.683Zm1.5-11.409a.412.412,0,0,0-.148-.2.4.4,0,0,0-.229-.066.373.373,0,0,0-.321.166.822.822,0,0,0-.1.457.932.932,0,0,0,.05.345.412.412,0,0,0,.146.192.4.4,0,0,0,.23.064.386.386,0,0,0,.227-.064.421.421,0,0,0,.143-.2.68.68,0,0,0,.035-.13v.141h.472v.222h.29V3.985h.1V3.706h-.1v-.7h-.273l-.475.707c0-.03,0-.061,0-.094a.99.99,0,0,0-.05-.348Zm-.245.351a.577.577,0,0,1-.047.277.089.089,0,0,1-.081.053.1.1,0,0,1-.089-.058.518.518,0,0,1-.042-.26.968.968,0,0,1,.02-.227.175.175,0,0,1,.047-.093.1.1,0,0,1,.064-.023c.022,0,.055.007.087.059a.568.568,0,0,1,.042.272Zm.632.081.119-.174v.175H143.1Zm3.024.2-.012-.054h.3l.012.024a.143.143,0,0,0,.051.06.119.119,0,0,0,.15-.017.147.147,0,0,0,0-.189.1.1,0,0,0-.122-.022.2.2,0,0,0-.052.042l-.018.019-.235-.053.147-.679h.587v.279h-.362l-.022.1h.012a.369.369,0,0,1,.276.114.4.4,0,0,1,.11.287.4.4,0,0,1-.12.3.4.4,0,0,1-.294.122.417.417,0,0,1-.265-.088.411.411,0,0,1-.146-.241Zm.481-2.092h-.427V1.532h.8l0,.172-.508,1.04-.253-.123.394-.807Zm-.964.455-.18.349.254.127.3-.584A1.048,1.048,0,0,0,146.089,2,.378.378,0,0,0,146,1.62a.385.385,0,0,0-.548.542A.358.358,0,0,0,145.645,2.268Zm-.016-.379a.1.1,0,0,1,.059-.1.09.09,0,0,1,.071,0,.1.1,0,0,1,.057.1.1.1,0,0,1-.027.073.093.093,0,0,1-.066.028.091.091,0,0,1-.066-.029A.1.1,0,0,1,145.629,1.889Zm1.337.342v.248h.472V2.7h.29V2.479h.1V2.2h-.1V1.5h-.273l-.481.716-.008.012Zm.353-.031.119-.175V2.2Zm-2.453.528a.388.388,0,0,0,.273-.657.359.359,0,0,0-.2-.106l.179-.348-.254-.127-.3.582a1.029,1.029,0,0,0-.072.163.388.388,0,0,0-.017.114.372.372,0,0,0,.109.264.367.367,0,0,0,.275.116Zm-.1-.384a.1.1,0,0,1,.027-.074.08.08,0,0,1,.064-.028.087.087,0,0,1,.068.028.1.1,0,0,1,.022.034.114.114,0,0,1-.051.136.086.086,0,0,1-.1-.022.1.1,0,0,1-.028-.074Zm-.966.341a.509.509,0,0,0,.227.043.486.486,0,0,0,.221-.045.35.35,0,0,0,.143-.136.382.382,0,0,0,.053-.2.377.377,0,0,0-.045-.181.365.365,0,0,0-.087-.107.38.38,0,0,0,.054-.086.306.306,0,0,0,.025-.125.348.348,0,0,0-.047-.176.333.333,0,0,0-.13-.128.431.431,0,0,0-.378,0,.325.325,0,0,0-.132.124.341.341,0,0,0-.047.177.328.328,0,0,0,.028.135.359.359,0,0,0,.05.082.376.376,0,0,0-.129.286.386.386,0,0,0,.052.2.342.342,0,0,0,.142.134Zm.276-.763a.076.076,0,0,1-.13-.056.072.072,0,0,1,.021-.055.065.065,0,0,1,.051-.02.078.078,0,0,1,.058.021.068.068,0,0,1,.02.053.08.08,0,0,1-.021.058Zm-.05.3a.13.13,0,0,1,.091.033.1.1,0,0,1,.034.08.1.1,0,0,1-.032.076.158.158,0,0,1-.191,0,.1.1,0,0,1-.025-.12.1.1,0,0,1,.026-.033A.137.137,0,0,1,144.031,2.225Zm1.168.785h-.273l-.481.716-.007.011v.248h.472v.222h.29V3.985h.1V3.706h-.1v-.7Zm-.409.7.119-.175v.175Zm.854.067-.18.349.254.126.3-.584a1.048,1.048,0,0,0,.072-.163A.378.378,0,0,0,146,3.125a.386.386,0,0,0-.548.542A.36.36,0,0,0,145.645,3.773Zm-.016-.379a.1.1,0,0,1,.059-.1.09.09,0,0,1,.071,0,.1.1,0,0,1,.057.1.1.1,0,0,1-.027.073.09.09,0,0,1-.1.02.1.1,0,0,1-.058-.094Zm5.7,11.723a.4.4,0,0,0-.229-.066.374.374,0,0,0-.321.166.82.82,0,0,0-.1.457.939.939,0,0,0,.05.345.41.41,0,0,0,.146.192.4.4,0,0,0,.23.064.387.387,0,0,0,.227-.064.422.422,0,0,0,.143-.2,1.248,1.248,0,0,0,0-.7.409.409,0,0,0-.148-.2Zm-.1.549a.581.581,0,0,1-.047.277.088.088,0,0,1-.081.053.1.1,0,0,1-.089-.058.519.519,0,0,1-.043-.26,1,1,0,0,1,.02-.227.179.179,0,0,1,.047-.093.1.1,0,0,1,.064-.023c.022,0,.055.007.087.06a.57.57,0,0,1,.042.271Zm-1.226,1.809h.327v.278H149.5v-.161l.347-.354a.918.918,0,0,0,.154-.187.253.253,0,0,0,.035-.114.094.094,0,0,0-.028-.072.107.107,0,0,0-.153.007.162.162,0,0,0-.036.105v.043h-.29l0-.046a.437.437,0,0,1,.123-.3.4.4,0,0,1,.292-.113.4.4,0,0,1,.2.047.353.353,0,0,1,.138.137.358.358,0,0,1,.051.181.521.521,0,0,1-.059.227,1.175,1.175,0,0,1-.208.274l-.051.053Zm.331-1.505h.326v.278h-.837v-.161l.347-.354a.917.917,0,0,0,.154-.187.253.253,0,0,0,.035-.114.094.094,0,0,0-.029-.072.107.107,0,0,0-.153.007.163.163,0,0,0-.036.105v.043h-.29l0-.046a.439.439,0,0,1,.123-.3.4.4,0,0,1,.292-.113.4.4,0,0,1,.2.047.354.354,0,0,1,.138.137.361.361,0,0,1,.051.181.52.52,0,0,1-.059.227,1.176,1.176,0,0,1-.208.274l-.05.053Zm-2.023,1.048.179-.348-.254-.127-.3.583a1.051,1.051,0,0,0-.072.163.382.382,0,1,0,.641-.165.359.359,0,0,0-.2-.105Zm.015.379a.106.106,0,0,1-.028.075.085.085,0,0,1-.1.022.087.087,0,0,1-.03-.022.112.112,0,0,1,0-.148.08.08,0,0,1,.063-.028.088.088,0,0,1,.069.028.1.1,0,0,1,.022.034.1.1,0,0,1,.006.04Zm-6.362-.813h.8l0,.172-.508,1.04L142,17.672l.394-.807h-.427Zm6.16-13.111h-.29l0-.046a.439.439,0,0,1,.123-.3.434.434,0,0,1,.487-.066.358.358,0,0,1,.138.137.364.364,0,0,1,.051.181.52.52,0,0,1-.059.227,1.175,1.175,0,0,1-.208.274l-.051.053h.326v.278h-.837V4.045l.347-.354a.934.934,0,0,0,.154-.187.253.253,0,0,0,.035-.114.094.094,0,0,0-.029-.072.107.107,0,0,0-.153.006.164.164,0,0,0-.036.106v.043Zm4.594,9.134a.36.36,0,0,0-.2-.106l.179-.348-.254-.128-.3.583a1.05,1.05,0,0,0-.072.163.4.4,0,0,0-.017.114.372.372,0,0,0,.109.264.382.382,0,0,0,.657-.266.376.376,0,0,0-.109-.276Zm-.181.273a.1.1,0,0,1-.058.1.087.087,0,0,1-.1-.022.113.113,0,0,1,0-.148.084.084,0,0,1,.064-.027.089.089,0,0,1,.068.028.1.1,0,0,1,.028.073Zm-1.272,1.584h.326v.279h-.837v-.161l.347-.354a.945.945,0,0,0,.154-.187.256.256,0,0,0,.035-.114.1.1,0,0,0-.029-.072.109.109,0,0,0-.153.007.163.163,0,0,0-.036.105v.043h-.29l0-.046a.44.44,0,0,1,.123-.3.4.4,0,0,1,.292-.113.4.4,0,0,1,.2.047.355.355,0,0,1,.138.137.36.36,0,0,1,.051.181.52.52,0,0,1-.059.227,1.181,1.181,0,0,1-.208.274l-.051.053Zm.991-.852a.4.4,0,0,0-.229-.066.373.373,0,0,0-.321.166.817.817,0,0,0-.1.457.932.932,0,0,0,.05.345.412.412,0,0,0,.146.192.4.4,0,0,0,.23.064.387.387,0,0,0,.227-.064.419.419,0,0,0,.143-.2,1.243,1.243,0,0,0,0-.7A.41.41,0,0,0,152.26,13.612Zm-.1.549a.576.576,0,0,1-.047.277.088.088,0,0,1-.081.053.1.1,0,0,1-.089-.058.519.519,0,0,1-.042-.26.985.985,0,0,1,.02-.227.177.177,0,0,1,.048-.093.1.1,0,0,1,.064-.023c.022,0,.055.007.086.059A.568.568,0,0,1,152.164,14.161Zm-2.791,2.913a.4.4,0,0,1,.11.288.409.409,0,0,1-.12.3.4.4,0,0,1-.294.122.418.418,0,0,1-.265-.088.413.413,0,0,1-.146-.241l-.012-.054h.3l.012.024a.143.143,0,0,0,.051.06.119.119,0,0,0,.15-.017.147.147,0,0,0,0-.188.093.093,0,0,0-.121-.022.2.2,0,0,0-.052.041l-.018.019-.235-.053.148-.678h.587v.279h-.361l-.022.1h.012a.37.37,0,0,1,.276.114Zm-6.116-1.562.179-.349-.254-.127-.3.583a1.044,1.044,0,0,0-.072.163.388.388,0,0,0-.017.114.372.372,0,0,0,.109.264.385.385,0,0,0,.548-.542.359.359,0,0,0-.2-.105Zm.015.379a.106.106,0,0,1-.028.075.089.089,0,0,1-.065.03.086.086,0,0,1-.065-.03.114.114,0,0,1,0-.148.081.081,0,0,1,.064-.028.087.087,0,0,1,.068.028.1.1,0,0,1,.022.034A.1.1,0,0,1,143.272,15.891Zm1.044,1.225a.379.379,0,0,0,.054-.087.306.306,0,0,0,.025-.125.348.348,0,0,0-.047-.176.333.333,0,0,0-.131-.127.431.431,0,0,0-.378,0,.324.324,0,0,0-.132.124.341.341,0,0,0-.047.177.328.328,0,0,0,.028.135.364.364,0,0,0,.05.082.376.376,0,0,0-.129.286.384.384,0,0,0,.052.2.343.343,0,0,0,.142.135.519.519,0,0,0,.227.043.485.485,0,0,0,.221-.045.352.352,0,0,0,.143-.136.384.384,0,0,0,.053-.2.377.377,0,0,0-.045-.181.366.366,0,0,0-.087-.107Zm-.235-.141a.074.074,0,0,1-.054.022.076.076,0,0,1-.076-.079.072.072,0,0,1,.021-.055.065.065,0,0,1,.051-.02.078.078,0,0,1,.058.021.068.068,0,0,1,.02.053.077.077,0,0,1-.021.058Zm-.145.337a.137.137,0,0,1,.1-.034.13.13,0,0,1,.091.033.1.1,0,0,1,.034.08.1.1,0,0,1-.032.076.157.157,0,0,1-.191,0,.1.1,0,0,1-.025-.12.1.1,0,0,1,.026-.033Zm-.678-.294.179-.348-.254-.127-.3.583a1.053,1.053,0,0,0-.072.163.39.39,0,0,0-.017.114.372.372,0,0,0,.109.264.386.386,0,0,0,.548-.543A.359.359,0,0,0,143.257,17.017Zm.015.379a.106.106,0,0,1-.028.075.089.089,0,0,1-.065.03.086.086,0,0,1-.065-.03.114.114,0,0,1,0-.148.08.08,0,0,1,.064-.028.087.087,0,0,1,.068.028.1.1,0,0,1,.028.073Zm1.671-.379.179-.348-.254-.127-.3.583a1.026,1.026,0,0,0-.072.163.389.389,0,0,0-.017.114.372.372,0,0,0,.109.264.382.382,0,0,0,.657-.266.376.376,0,0,0-.109-.276.359.359,0,0,0-.2-.106Zm.015.379a.1.1,0,0,1-.058.1.087.087,0,0,1-.1-.023.113.113,0,0,1,0-.148.08.08,0,0,1,.064-.028.087.087,0,0,1,.068.028.1.1,0,0,1,.028.073Zm2.018-.641-.508,1.04-.253-.123.394-.807h-.427v-.281h.8Zm.752-.2h-.273l-.481.716-.008.011v.248h.472v.222h.29v-.222h.1v-.279h-.1Zm-.409.7.119-.174v.174Zm-1.6-.7a.388.388,0,0,0-.272.657.357.357,0,0,0,.2.106l-.18.349.254.127.3-.584a1.073,1.073,0,0,0,.072-.163.376.376,0,0,0,.017-.113.384.384,0,0,0-.385-.38Zm.1.385a.1.1,0,0,1-.027.073.092.092,0,0,1-.132,0,.108.108,0,0,1,.031-.169.091.091,0,0,1,.037-.007.084.084,0,0,1,.063.029.1.1,0,0,1,.028.075ZM150.9,9.9l-.051.053h.326v.278h-.837v-.161l.347-.354a.944.944,0,0,0,.154-.187.257.257,0,0,0,.035-.114.094.094,0,0,0-.029-.072.108.108,0,0,0-.153.006.163.163,0,0,0-.036.106v.043h-.29l0-.046a.439.439,0,0,1,.123-.3.4.4,0,0,1,.292-.113.394.394,0,0,1,.195.047.355.355,0,0,1,.138.137.36.36,0,0,1,.051.181.522.522,0,0,1-.059.227,1.183,1.183,0,0,1-.208.273Zm-.965-2.2a.82.82,0,0,0-.1.457.932.932,0,0,0,.05.345.412.412,0,0,0,.146.192.4.4,0,0,0,.23.064.386.386,0,0,0,.227-.064.421.421,0,0,0,.143-.2,1.248,1.248,0,0,0,0-.7.412.412,0,0,0-.148-.2.4.4,0,0,0-.229-.066.373.373,0,0,0-.321.166Zm.412.177a.568.568,0,0,1,.042.272.575.575,0,0,1-.047.277.088.088,0,0,1-.081.053.1.1,0,0,1-.089-.058.518.518,0,0,1-.042-.26.967.967,0,0,1,.02-.227.175.175,0,0,1,.047-.093.1.1,0,0,1,.064-.023C150.284,7.809,150.317,7.815,150.348,7.868Zm-2.111-5.14a.388.388,0,0,0,.273-.657.359.359,0,0,0-.2-.106l.179-.348-.254-.127-.3.582a1.048,1.048,0,0,0-.072.163.388.388,0,0,0-.017.114.372.372,0,0,0,.109.264.367.367,0,0,0,.275.116Zm-.095-.384a.1.1,0,0,1,.027-.074.08.08,0,0,1,.063-.028.088.088,0,0,1,.069.028.1.1,0,0,1,.028.073.106.106,0,0,1-.028.075.089.089,0,0,1-.065.03.086.086,0,0,1-.065-.03.1.1,0,0,1-.028-.074Zm.94,6.671-.3.583a1.052,1.052,0,0,0-.072.163.4.4,0,0,0-.017.114.372.372,0,0,0,.109.264.382.382,0,0,0,.657-.266.376.376,0,0,0-.109-.276.36.36,0,0,0-.2-.106l.179-.348-.254-.127Zm.09.855a.1.1,0,0,1-.058.1.086.086,0,0,1-.1-.022.113.113,0,0,1,0-.148.084.084,0,0,1,.064-.028.089.089,0,0,1,.068.028.1.1,0,0,1,.028.073Zm1.593-3.865-.3.583a1.027,1.027,0,0,0-.072.163.39.39,0,0,0-.017.114.372.372,0,0,0,.109.264.382.382,0,0,0,.657-.266.376.376,0,0,0-.109-.276.358.358,0,0,0-.2-.105l.179-.349Zm.09.854a.1.1,0,0,1-.058.1.086.086,0,0,1-.1-.022.113.113,0,0,1,0-.148.083.083,0,0,1,.064-.028.087.087,0,0,1,.068.028A.1.1,0,0,1,150.856,6.86Zm-1.31,1.531-.051.053h.326v.278h-.837V8.561l.347-.354a.943.943,0,0,0,.154-.187.256.256,0,0,0,.035-.114.1.1,0,0,0-.029-.072.107.107,0,0,0-.153.007.162.162,0,0,0-.036.105v.043h-.29l0-.046a.44.44,0,0,1,.123-.3.4.4,0,0,1,.292-.113.4.4,0,0,1,.2.047.376.376,0,0,1,.189.318.521.521,0,0,1-.059.227,1.182,1.182,0,0,1-.208.274Zm-1.259,2.528a.374.374,0,0,0,.109.275.361.361,0,0,0,.2.106l-.18.349.254.127.3-.584a1.071,1.071,0,0,0,.072-.162.385.385,0,0,0-.012-.256.373.373,0,0,0-.081-.121.382.382,0,0,0-.657.267Zm.29,0a.1.1,0,0,1,.028-.075.092.092,0,0,1,.067-.029.086.086,0,0,1,.063.029.1.1,0,0,1,.029.075.1.1,0,0,1-.027.073.09.09,0,0,1-.066.028.092.092,0,0,1-.066-.029.1.1,0,0,1-.028-.073Zm.91.839a.418.418,0,0,1-.265-.088.413.413,0,0,1-.146-.241l-.012-.054h.3l.012.024a.141.141,0,0,0,.051.06.119.119,0,0,0,.15-.017.147.147,0,0,0,0-.189.1.1,0,0,0-.122-.022.2.2,0,0,0-.052.042l-.018.019-.235-.053.148-.679h.587v.279h-.361l-.022.1h.012a.371.371,0,0,1,.276.114.392.392,0,0,1,.11.287.409.409,0,0,1-.12.3A.4.4,0,0,1,149.486,11.76Zm.666-5.674a.4.4,0,0,0-.229-.065.374.374,0,0,0-.321.166.822.822,0,0,0-.1.456.939.939,0,0,0,.05.345.408.408,0,0,0,.146.192.4.4,0,0,0,.23.064.388.388,0,0,0,.227-.064.423.423,0,0,0,.143-.2.977.977,0,0,0,.051-.352.982.982,0,0,0-.05-.349.408.408,0,0,0-.148-.2Zm-.1.549a.577.577,0,0,1-.048.277.089.089,0,0,1-.081.053.1.1,0,0,1-.089-.057.518.518,0,0,1-.043-.26.983.983,0,0,1,.02-.227.179.179,0,0,1,.047-.093.1.1,0,0,1,.064-.023c.022,0,.055.007.087.059A.57.57,0,0,1,150.057,6.635Zm-.71,6.519a.37.37,0,0,0,.112-.271.376.376,0,0,0-.109-.276.359.359,0,0,0-.2-.106l.179-.348-.254-.128-.3.583a1.016,1.016,0,0,0-.072.163.388.388,0,0,0-.017.114.372.372,0,0,0,.109.264.385.385,0,0,0,.545,0Zm-.365-.274a.1.1,0,0,1,.027-.074.08.08,0,0,1,.064-.027.087.087,0,0,1,.068.028.1.1,0,0,1,.028.073.1.1,0,0,1-.058.1.087.087,0,0,1-.1-.022A.1.1,0,0,1,148.982,12.88Zm2.338-1.479-.051.053h.326v.278h-.837v-.161l.347-.354a.937.937,0,0,0,.154-.187.256.256,0,0,0,.035-.114.1.1,0,0,0-.029-.072.107.107,0,0,0-.153.006.162.162,0,0,0-.036.106V11h-.29l0-.046a.441.441,0,0,1,.123-.3.4.4,0,0,1,.292-.113.4.4,0,0,1,.2.047.355.355,0,0,1,.138.137.361.361,0,0,1,.051.181.519.519,0,0,1-.059.227,1.18,1.18,0,0,1-.208.274Zm-2.182-6.886-.481.716-.007.011v.248h.472v.222h.29V5.489h.1V5.211h-.1v-.7h-.273Zm-.135.7.119-.175v.175Zm1.837.213a.147.147,0,0,0,0-.189.094.094,0,0,0-.122-.022.2.2,0,0,0-.052.042l-.018.019-.235-.053.148-.679h.587v.279h-.361l-.022.1h.012a.371.371,0,0,1,.276.114.392.392,0,0,1,.11.287.409.409,0,0,1-.12.3.4.4,0,0,1-.294.122.418.418,0,0,1-.265-.088.413.413,0,0,1-.146-.241l-.012-.054h.3l.012.024a.141.141,0,0,0,.051.06.119.119,0,0,0,.15-.017Zm-.165,6.309v-.222h.1v-.279h-.1v-.7H150.4l-.481.716-.007.011v.248h.472v.222h.29Zm-.408-.5.119-.175v.175Zm-.336,2.048.3-.584a1.073,1.073,0,0,0,.072-.162.385.385,0,0,0-.012-.256.373.373,0,0,0-.081-.121.382.382,0,0,0-.657.267.374.374,0,0,0,.109.275.361.361,0,0,0,.2.106l-.18.349.254.127Zm-.09-.855a.1.1,0,0,1,.028-.074.093.093,0,0,1,.067-.029.086.086,0,0,1,.063.029.1.1,0,0,1,.029.075A.1.1,0,0,1,150,12.5a.094.094,0,0,1-.066.028.092.092,0,0,1-.066-.029A.1.1,0,0,1,149.841,12.425Zm-1.2-4.405a.253.253,0,0,0,.035-.114.094.094,0,0,0-.029-.072.108.108,0,0,0-.153.007.164.164,0,0,0-.036.105v.043h-.29l0-.046a.439.439,0,0,1,.123-.3.4.4,0,0,1,.292-.113.4.4,0,0,1,.2.047.378.378,0,0,1,.189.318.52.52,0,0,1-.059.227,1.175,1.175,0,0,1-.208.274l-.051.053h.327v.278h-.837V8.561l.347-.354a.926.926,0,0,0,.154-.187Zm.509-1.5a.253.253,0,0,0,.035-.114.094.094,0,0,0-.028-.072.111.111,0,0,0-.078-.029.108.108,0,0,0-.075.036.163.163,0,0,0-.036.105v.043h-.29l0-.046a.438.438,0,0,1,.123-.3.4.4,0,0,1,.292-.113.4.4,0,0,1,.2.047.353.353,0,0,1,.138.137.358.358,0,0,1,.051.181.521.521,0,0,1-.059.227,1.174,1.174,0,0,1-.208.274l-.051.053h.327v.279h-.837V7.056L149,6.7a.934.934,0,0,0,.154-.187Zm-.485,8.27.3-.584a1.075,1.075,0,0,0,.072-.163.385.385,0,0,0-.012-.256.373.373,0,0,0-.081-.121.382.382,0,0,0-.657.267.374.374,0,0,0,.109.275.36.36,0,0,0,.2.106l-.18.349.254.127Zm-.09-.855a.1.1,0,0,1,.028-.074.092.092,0,0,1,.067-.029.085.085,0,0,1,.063.029.1.1,0,0,1,.029.075.1.1,0,0,1-.027.073.091.091,0,0,1-.132,0,.1.1,0,0,1-.028-.073Zm1.147-4.873h.587v.279h-.361l-.022.1h.012a.369.369,0,0,1,.276.114.392.392,0,0,1,.11.288.409.409,0,0,1-.12.3.4.4,0,0,1-.293.122.406.406,0,0,1-.411-.329l-.012-.054h.3l.013.024a.141.141,0,0,0,.051.06.118.118,0,0,0,.15-.017.147.147,0,0,0,0-.188.1.1,0,0,0-.122-.022.2.2,0,0,0-.052.041l-.018.019-.235-.053.147-.678Zm1.1-5.739H150.4V3.037h.8l0,.172-.508,1.04-.253-.123.394-.807Zm-.9,11.056,0-.047h.288l.005.037a.162.162,0,0,0,.045.1.134.134,0,0,0,.173,0,.112.112,0,0,0,.02-.135.113.113,0,0,0-.033-.036.258.258,0,0,0-.158-.043h-.043v-.261l.041,0a.284.284,0,0,0,.1-.019.092.092,0,0,0,.038-.032.069.069,0,0,0,.013-.04.054.054,0,0,0,0-.022.055.055,0,0,0-.013-.019.066.066,0,0,0-.051-.017.086.086,0,0,0-.054.018.1.1,0,0,0-.034.047l-.01.031h-.281l.006-.05a.368.368,0,0,1,.378-.333.36.36,0,0,1,.253.1.312.312,0,0,1,.1.233.278.278,0,0,1-.047.156.29.29,0,0,1-.058.064.306.306,0,0,1,.1.084.324.324,0,0,1,.064.2.367.367,0,0,1-.121.278.425.425,0,0,1-.3.113.4.4,0,0,1-.288-.107A.417.417,0,0,1,149.927,14.375Zm1.26-2.135-.508,1.04-.253-.123.394-.807h-.427v-.282h.8l0,.172Zm-1.206-8.921h-.427V3.037h.8l0,.172-.508,1.04-.253-.123.394-.807Zm1.515,1.66h-.29l0-.046a.44.44,0,0,1,.123-.3.405.405,0,0,1,.293-.113.4.4,0,0,1,.195.047.355.355,0,0,1,.138.137.361.361,0,0,1,.051.181.523.523,0,0,1-.059.227,1.183,1.183,0,0,1-.208.274l-.051.053h.326v.278h-.837V5.551l.347-.354a.954.954,0,0,0,.154-.187.256.256,0,0,0,.035-.114.1.1,0,0,0-.065-.094.11.11,0,0,0-.083,0,.107.107,0,0,0-.034.025.163.163,0,0,0-.036.106v.043Zm-2.34-2.565a.147.147,0,0,0,0-.188.094.094,0,0,0-.121-.022.2.2,0,0,0-.052.041l-.018.019-.235-.053.148-.678h.587V1.81h-.361l-.022.1h.012a.37.37,0,0,1,.276.114.4.4,0,0,1,.11.288.413.413,0,0,1-.414.419.418.418,0,0,1-.265-.088.413.413,0,0,1-.146-.241l-.012-.054h.3l.012.024a.144.144,0,0,0,.051.06.119.119,0,0,0,.15-.017Zm.156.663a.4.4,0,0,0-.229-.066.373.373,0,0,0-.321.166.822.822,0,0,0-.1.457.932.932,0,0,0,.05.345.408.408,0,0,0,.146.192.4.4,0,0,0,.23.064.386.386,0,0,0,.227-.064.421.421,0,0,0,.143-.2.975.975,0,0,0,.051-.352.983.983,0,0,0-.05-.348.408.408,0,0,0-.148-.2Zm-.1.549a.581.581,0,0,1-.048.277.088.088,0,0,1-.081.053A.1.1,0,0,1,149,3.9a.519.519,0,0,1-.043-.26.968.968,0,0,1,.02-.227.177.177,0,0,1,.047-.093.1.1,0,0,1,.064-.023c.022,0,.055.007.087.059a.572.572,0,0,1,.042.272Zm.7,2.114a.38.38,0,0,0,.382-.381.376.376,0,0,0-.109-.276.359.359,0,0,0-.2-.106l.179-.348-.254-.128-.3.583a1.017,1.017,0,0,0-.072.163.372.372,0,0,0,.092.377.368.368,0,0,0,.275.116Zm-.1-.384a.1.1,0,0,1,.027-.074.08.08,0,0,1,.063-.027.089.089,0,0,1,.068.028.094.094,0,0,1,.022.034.092.092,0,0,1,.006.04.1.1,0,0,1-.028.075.086.086,0,0,1-.1.022.087.087,0,0,1-.03-.022A.1.1,0,0,1,149.825,5.354Zm-2.943,10.921a.388.388,0,0,0,.273-.658.359.359,0,0,0-.2-.105l.179-.349-.254-.127-.3.583a1.05,1.05,0,0,0-.072.163.379.379,0,0,0,.093.377A.364.364,0,0,0,146.882,16.275Zm-.095-.384a.1.1,0,0,1,.027-.074.081.081,0,0,1,.063-.028.089.089,0,0,1,.068.028.1.1,0,0,1,.028.074.106.106,0,0,1-.028.075.085.085,0,0,1-.1.022.087.087,0,0,1-.03-.022A.1.1,0,0,1,146.787,15.891Zm-.1-8.339h.376v1.17h-.292V7.834h-.258Zm1.175-3.01h.8l0,.172-.508,1.04-.253-.123.394-.807h-.427V4.542Zm2.058,9.2-.508,1.04-.253-.123.394-.807h-.427v-.281h.8Zm-2.567-6.193h.8l0,.172-.508,1.04-.253-.123.394-.807h-.427V7.553Zm2.465,8.7h-.837v-.161l.347-.354a.925.925,0,0,0,.154-.187.253.253,0,0,0,.035-.114.1.1,0,0,0-.029-.072.108.108,0,0,0-.153.007.163.163,0,0,0-.036.105v.043h-.29l0-.046a.44.44,0,0,1,.123-.3.4.4,0,0,1,.292-.113.4.4,0,0,1,.2.047.357.357,0,0,1,.138.137.361.361,0,0,1,.051.181.521.521,0,0,1-.059.227,1.182,1.182,0,0,1-.208.274l-.051.053h.326v.278Zm-2.51-5.978-.253-.123.394-.807h-.427V9.058h.8l0,.172Zm.97-.043h.29v-.222h.1V9.727h-.1v-.7H148.3l-.481.715-.007.012v.248h.472Zm-.119-.5.119-.175v.175ZM113.623.844a1.839,1.839,0,0,1,1.355.572,1.9,1.9,0,0,1,.565,1.387,1.876,1.876,0,0,1-.56,1.37,1.814,1.814,0,0,1-1.339.567,1.842,1.842,0,0,1-1.367-.578,1.931,1.931,0,0,1-.565-1.4,1.849,1.849,0,0,1,.56-1.354,1.835,1.835,0,0,1,1.35-.561Z" transform="translate(-78.954 0)" fill="#cfb764"/>
  </g>
</svg>
