<svg xmlns="http://www.w3.org/2000/svg" width="118.255" height="27.579" viewBox="0 0 118.255 27.579">
  <g id="logo_2_" data-name="logo (2)" transform="translate(0.375)">
    <path id="形状_756" data-name="形状 756" d="M448.778,2531.564a1.486,1.486,0,1,1,1.486,1.522,1.506,1.506,0,0,1-1.486-1.522Zm18.3-11.854v3.012h-4.528a3.982,3.982,0,0,0-3.169,1.048,4.533,4.533,0,0,0-.849,3.017,3.865,3.865,0,0,0,1.386,3.3,3.464,3.464,0,0,0,1.231.563,8.085,8.085,0,0,0,1.853.157h4.075v3.017H461.9a10.064,10.064,0,0,1-3.309-.436,5.068,5.068,0,0,1-2.151-1.507,7.529,7.529,0,0,1-1.783-5.163q0-3.776,2.124-5.626a4.989,4.989,0,0,1,2.037-1.075,12.418,12.418,0,0,1,3.084-.315h5.179Zm9.253-.2q3.821,0,5.631,2.262a7.971,7.971,0,0,1,1.669,5.192,6.9,6.9,0,0,1-2.1,5.278,7.422,7.422,0,0,1-5.263,1.8,7.146,7.146,0,0,1-5.406-2.03,7.284,7.284,0,0,1-1.809-5.34,7.2,7.2,0,0,1,1.727-4.926,7.037,7.037,0,0,1,5.546-2.234Zm.028,2.957q-3.424,0-3.424,4.352a5.23,5.23,0,0,0,.566,2.7,3.129,3.129,0,0,0,2.886,1.566q3.364,0,3.364-4.326,0-4.225-3.393-4.288Zm10.073-2.753h13.923a10.933,10.933,0,0,1,2.886.287,3.669,3.669,0,0,1,1.67,1.015,5.548,5.548,0,0,1,1.245,3.828v8.991h-3.792v-8.378a8.063,8.063,0,0,0-.085-1.423,1.432,1.432,0,0,0-.393-.723,2.44,2.44,0,0,0-1.782-.584H498.1v11.109h-3.792v-11.106h-4.075v11.109H486.44v-14.121Zm-59.292,7.055-5.465-7.237h4.343l3.269,4.82,3.544-4.82h4.293l-5.641,7.237,5.641,7.385h-4.169l-3.669-5.02-3.593,5.02h-4.218Zm15.524-4.628h-6.394l2.218-2.609h13.238v2.609h-5.516v12.013h-3.544v-12.013Z" transform="translate(-388.289 -2512.607)" fill="#fff" fill-rule="evenodd"/>
    <path id="形状_756_拷贝" data-name="形状 756 拷贝" d="M470.971,2540.192a1.486,1.486,0,1,1,1.486,1.522,1.506,1.506,0,0,1-1.486-1.522Z" transform="translate(-410.482 -2521.233)" fill="#ffbe41" fill-rule="evenodd"/>
    <path id="形状_519" data-name="形状 519" d="M374.517,2534.579a13.789,13.789,0,1,1,13.687-13.79,13.789,13.789,0,0,1-13.687,13.79Zm0-25.533a11.743,11.743,0,1,0,11.659,11.743,11.744,11.744,0,0,0-11.659-11.743Zm.492,9.852,2.642-3.232a.794.794,0,0,0-.6-1.3h0a.786.786,0,0,0-.6.281l-2.458,3-2.458-3a.758.758,0,0,0-.6-.281H368.91a.787.787,0,0,0-.6,1.3l3.656,4.468-4.669,5.715a.787.787,0,1,0,1.2,1.015l4.484-5.477Zm6.128-4.529a.791.791,0,0,0-.6.281l-4.468,5.483-2.028,2.483-2.642,3.232a.787.787,0,1,0,1.2,1.015l2.458-2.994,2.457,3a.762.762,0,0,0,.6.281h2.024a.787.787,0,0,0,.6-1.3l-3.655-4.463,4.669-5.719a.8.8,0,0,0-.615-1.3" transform="translate(-361 -2507)" fill="#ffbe40" fill-rule="evenodd"/>
  </g>
</svg>
